<svg xmlns="http://www.w3.org/2000/svg" width="1280" height="640" viewBox="0 0 1280 640">
  <rect width="1280" height="640" fill="#FFFFFF"/>
  <g transform="translate(463.49633251833745,60.0) scale(-0.6356968215158925,0.6356968215158925)"><path d="M0 0 C204.27 0 408.54 0 619 0 C619 269.94 619 539.88 619 818 C414.73 818 210.46 818 0 818 C0 548.06 0 278.12 0 0 Z " fill="#333854" transform="translate(0,0)"/>
<path d="M0 0 C204.27 0 408.54 0 619 0 C619 269.94 619 539.88 619 818 C414.73 818 210.46 818 0 818 C0 548.06 0 278.12 0 0 Z M371 27 C369.545 27.333 368.089 27.665 366.633 27.996 C349.646 32.07 333.987 40.091 322 53 C321.384 53.646 320.768 54.292 320.133 54.957 C316.547 58.82 313.648 62.454 311.188 67.125 C308.33 72.134 304.971 74.193 300.062 77.047 C289.478 83.797 278.654 94.691 273 106 C271.135 106.883 269.227 107.676 267.305 108.426 C266.121 108.89 264.937 109.355 263.717 109.833 C262.436 110.327 261.156 110.82 259.875 111.312 C258.581 111.816 257.288 112.319 255.994 112.823 C248.554 115.705 241.1 118.464 233.469 120.805 C208.167 129.523 182.621 141.514 163 160 C162.325 160.632 161.651 161.264 160.956 161.916 C151.477 170.884 142.968 179.943 136 191 C135.432 191.884 134.863 192.769 134.277 193.68 C132.663 196.396 131.306 199.122 130 202 C129.726 202.591 129.453 203.182 129.171 203.791 C124.696 213.831 123.438 223.28 123.375 234.25 C123.364 235.417 123.353 236.583 123.342 237.785 C123.459 244.766 123.966 248.966 129 254 C135.319 254.468 135.319 254.468 137.523 252.953 C139.701 250.072 140.903 246.821 142.25 243.5 C154.958 213.598 181.349 193.039 211 181 C211.773 180.686 212.546 180.372 213.343 180.048 C228.203 174.068 242.874 169.543 258.625 166.625 C259.307 166.498 259.989 166.371 260.692 166.24 C308.49 157.425 308.49 157.425 324 168 C326.965 170.863 327.911 172.471 328.602 176.566 C328.662 186.864 327.333 194.981 320.207 203.023 C318.913 204.288 317.598 205.533 316.266 206.758 C311.815 211.162 308.142 216.26 304.351 221.23 C303.077 222.899 301.793 224.559 300.508 226.219 C296.39 231.599 292.698 236.916 289.582 242.941 C286.392 247.092 281.369 248.317 276.5 249.688 C254.961 256.194 234.763 263.216 220 281 C219.385 281.739 218.77 282.477 218.137 283.238 C206.682 297.44 202.946 313.983 202.754 331.93 C202.721 334.046 202.688 336.161 202.654 338.277 C202.607 341.577 202.562 344.877 202.523 348.177 C202.483 351.387 202.432 354.596 202.379 357.805 C202.375 358.291 202.375 358.291 202.353 360.754 C202.241 367.049 201.437 372.875 200 379 C199.86 379.624 199.86 379.624 199.15 382.78 C198.87 383.961 198.589 385.142 198.301 386.359 C198.145 387.019 197.989 387.679 197.828 388.359 C197.496 389.764 197.163 391.17 196.829 392.575 C196.122 395.553 195.418 398.532 194.715 401.51 C194.352 403.046 193.989 404.582 193.626 406.117 C191.913 413.36 190.213 420.606 188.52 427.854 C188.071 429.775 187.621 431.697 187.171 433.618 C186.899 434.782 186.628 435.946 186.348 437.145 C186.111 438.159 185.873 439.173 185.629 440.218 C185.044 442.805 184.507 445.397 184 448 C173.283 435.215 165.305 425.214 161.992 408.672 C157.541 386.84 148.082 361.109 129 348 C127.674 347.637 126.341 347.299 125 347 C125.2 346.454 125.401 345.908 125.607 345.345 C142.983 297.951 142.983 297.951 142 288 C140.688 285.312 140.688 285.312 138 284 C134.149 283.279 130.783 282.907 127 284 C120.3 289.855 117.917 297.998 114.938 306.125 C114.43 307.477 113.922 308.829 113.412 310.18 C112.413 312.832 111.424 315.487 110.441 318.146 C109.492 320.703 108.517 323.247 107.516 325.784 C107.058 326.946 106.601 328.108 106.129 329.305 C105.718 330.333 105.308 331.362 104.885 332.421 C104 335 104 335 104 338 C103.697 337.983 103.697 337.983 102.164 337.895 C93.659 337.62 86.375 338.667 79.688 344.25 C74.648 349.107 71.421 353.876 68.688 360.312 C66.918 364.397 64.935 367.54 62.062 370.938 C54.773 379.735 50.945 387.575 51.492 399.191 C52.901 409.758 56.39 417.442 64.109 424.816 C66.319 427.368 66.879 428.638 67 432 C66.109 434.953 66.109 434.953 64.75 438.25 C61.67 446.361 60.297 454.449 59 463 C58.813 464.057 58.626 465.114 58.434 466.203 C58.038 468.757 57.835 471.168 57.812 473.75 C57.798 474.508 57.784 475.266 57.77 476.047 C58 478 58 478 60 480 C63.118 480.145 65.14 479.696 67.598 477.707 C75.717 469.012 89 451.208 89 439 C89.473 439.436 89.946 439.871 90.434 440.32 C95.929 445.269 101.701 450.323 108.664 453.039 C119.373 457.473 122.395 467.104 127 477 C129.259 481.766 131.544 486.519 133.832 491.271 C134.527 492.715 135.221 494.16 135.914 495.605 C142.874 510.099 150.519 523.983 160 537 C144.619 531.685 129.267 526.279 114.125 520.312 C113.58 520.105 113.58 520.105 110.821 519.057 C100.764 515.014 93.845 509.324 88.438 499.938 C82.695 490.385 75.953 484.415 65.102 481.609 C56.771 479.973 47.664 480.031 40 484 C32.529 489.566 25.972 495.616 24 505 C21.58 523.771 36.823 540.323 46.625 555 C46.868 555.364 46.868 555.364 48.097 557.207 C54.271 566.461 60.48 575.69 66.785 584.856 C69.954 589.465 73.089 594.094 76.188 598.75 C76.589 599.353 76.99 599.955 77.403 600.576 C79.452 603.658 81.491 606.746 83.523 609.84 C98.973 633.303 98.973 633.303 107 639 C107.66 639.472 108.32 639.944 109 640.43 C112.987 643.103 116.12 644.713 121 645 C121.744 645.085 122.488 645.17 123.254 645.258 C139.175 646.349 155.102 635.734 168.973 628.926 C182.837 622.146 182.837 622.146 187 623 C188.498 624.205 189.993 625.417 191.43 626.695 C196.155 630.621 200.949 631.163 206.875 631.812 C212.792 632.55 216.137 633.983 220.809 637.562 C223.288 639.189 225.369 639.774 228.25 640.438 C234.136 641.807 238.94 644.474 244.152 647.477 C252.199 651.781 264.335 651.32 273.074 649.105 C276.098 648.164 279.039 647.118 282 646 C281.811 646.78 281.622 647.559 281.427 648.363 C279.513 656.431 277.978 664.508 276.625 672.688 C274.478 685.381 272.147 698.027 269.655 710.657 C268.98 714.1 268.323 717.546 267.668 720.992 C265.552 731.976 263.324 742.889 260.617 753.742 C260.412 754.569 260.206 755.396 259.994 756.248 C258.982 760.305 257.952 764.356 256.896 768.402 C252.738 784.61 252.738 784.61 254 792 C256.451 794.451 257.087 794.251 260.452 794.254 C261.394 794.26 262.336 794.266 263.306 794.272 C264.348 794.268 265.39 794.265 266.464 794.261 C267.015 794.263 267.015 794.263 269.802 794.272 C273.517 794.283 277.233 794.279 280.949 794.275 C283.603 794.279 286.256 794.284 288.91 794.29 C295.386 794.303 301.861 794.305 308.337 794.302 C313.599 794.301 318.861 794.302 324.123 794.307 C324.871 794.307 325.619 794.308 326.39 794.308 C327.909 794.31 329.428 794.311 330.947 794.312 C345.207 794.323 359.468 794.321 373.728 794.315 C386.781 794.309 399.834 794.321 412.887 794.34 C426.28 794.359 439.673 794.367 453.066 794.364 C460.589 794.362 468.112 794.364 475.635 794.378 C482.041 794.39 488.446 794.392 494.851 794.38 C498.12 794.374 501.389 794.374 504.659 794.385 C508.2 794.395 511.741 794.387 515.282 794.374 C516.32 794.382 517.357 794.389 518.426 794.397 C518.9 794.393 518.9 794.393 521.297 794.375 C521.706 794.375 521.706 794.375 523.774 794.375 C526.566 793.905 527.96 792.937 530 791 C530.251 788.469 530.251 788.469 529.891 785.5 C529.762 784.426 529.634 783.352 529.502 782.246 C528.76 777.451 527.816 772.733 526.75 768 C524.536 757.79 522.619 747.549 520.814 737.259 C519.377 729.071 517.865 720.901 516.256 712.745 C516.104 711.968 515.953 711.191 515.797 710.391 C515.666 709.731 515.536 709.071 515.401 708.392 C514.386 702.338 513.849 696.352 513.57 690.223 C513.499 688.737 513.427 687.252 513.354 685.766 C513.336 685.383 513.336 685.383 513.242 683.44 C512.476 667.864 511.3 652.436 509 637 C508.853 636.012 508.706 635.025 508.555 634.007 C506.919 623.312 504.883 612.907 501.797 602.534 C499.447 594.487 498.204 586.283 497 578 C498.279 577.732 499.558 577.464 500.875 577.188 C513.922 574.243 525.207 570.626 533 559 C536.987 551.349 539.657 543.368 542.125 535.125 C542.459 534.043 542.793 532.962 543.137 531.848 C545.146 525.238 546.849 518.608 548.356 511.867 C549.104 508.537 549.951 505.239 550.812 501.938 C553.361 491.955 555.421 481.862 557.555 471.785 C558.703 466.367 559.899 460.963 561.125 455.562 C564.398 441.003 566.97 426.308 569.498 411.605 C571.468 400.192 573.611 388.81 575.918 377.461 C576.059 376.766 576.2 376.071 576.345 375.355 C576.721 373.515 577.103 371.675 577.484 369.836 C578 367 578 367 578 364 C583.61 364 589.22 364 595 364 C595.046 349.909 595.082 335.818 595.104 321.727 C595.114 315.184 595.128 308.641 595.151 302.098 C595.173 295.783 595.185 289.467 595.19 283.152 C595.193 280.743 595.201 278.335 595.211 275.926 C595.226 272.551 595.228 269.176 595.227 265.801 C595.234 264.806 595.241 263.812 595.249 262.788 C595.233 257.432 594.705 253.076 593 248 C592.647 245.777 592.335 243.547 592.062 241.312 C591.165 234.71 589.709 228.432 588 222 C587.395 219.521 586.79 217.042 586.188 214.562 C582.776 200.837 579.009 187.202 574.082 173.938 C573.144 171.391 572.305 168.841 571.5 166.25 C570.164 162.166 568.269 158.491 566.293 154.684 C564.969 151.936 563.954 149.187 562.938 146.312 C557.356 131.439 549.414 116.794 540 104 C539.552 103.386 539.103 102.772 538.641 102.14 C535.155 97.379 531.597 92.677 528 88 C527.63 87.515 527.63 87.515 525.758 85.062 C505.353 59.191 476.823 37.435 444.672 28.973 C441 28 441 28 438.09 26.941 C418.013 20.824 391.09 21.82 371 27 Z " fill="#FFFFFF" transform="translate(0,0)"/>
<path d="M0 0 C18.861 2.241 38.401 12.492 51.438 26.375 C59.5 36.678 62.396 48.08 62.375 60.875 C62.373 61.914 62.372 62.954 62.37 64.025 C62.184 76.21 60.191 88.039 58 100 C57.819 101.014 57.637 102.029 57.45 103.074 C54.404 120.056 54.404 120.056 52 128 C29.07 129.338 5.408 124.327 -17 120 C-17 110.1 -17 100.2 -17 90 C-18.65 90 -20.3 90 -22 90 C-22.322 92.133 -22.644 94.267 -22.965 96.4 C-23.24 98.23 -23.516 100.061 -23.793 101.891 C-24.399 105.92 -25.003 109.949 -25.539 113.988 C-26.422 120.596 -27.589 127.01 -29.219 133.477 C-29.898 136.541 -30.417 139.569 -30.902 142.668 C-31.906 148.8 -33.368 154.713 -35.062 160.688 C-35.362 161.753 -35.661 162.819 -35.97 163.917 C-38.551 172.88 -41.637 181.618 -44.858 190.367 C-49.541 203.101 -52.618 215.511 -54.574 228.941 C-54.798 230.295 -55.023 231.647 -55.25 233 C-55.441 234.238 -55.632 235.475 -55.828 236.75 C-57.362 241.004 -59.022 241.95 -63 244 C-65.348 244.906 -67.728 245.732 -70.125 246.5 C-78.388 249.263 -86.381 252.612 -94.375 256.062 C-95.551 256.569 -96.727 257.076 -97.938 257.598 C-103.143 259.854 -108.326 262.143 -113.473 264.531 C-119.89 267.462 -126.462 269.955 -133.062 272.438 C-133.699 272.677 -134.336 272.917 -134.992 273.165 C-151.231 279.277 -167.311 284.583 -184.223 288.523 C-186 289 -186 289 -188 290 C-189.996 290.151 -191.998 290.222 -194 290.25 C-195.072 290.276 -196.145 290.302 -197.25 290.328 C-202.085 289.905 -206.413 288.53 -211 287 C-211.485 282.042 -211.963 277.084 -212.438 272.125 C-212.508 271.388 -212.579 270.652 -212.652 269.893 C-213.429 261.766 -214.146 253.661 -214.438 245.5 C-214.842 235.477 -216.753 225.686 -218.512 215.829 C-218.942 213.335 -219.329 210.842 -219.684 208.336 C-223.477 181.535 -230.16 156.783 -241.898 132.387 C-251.136 113.157 -256.009 92.659 -261 72 C-261.99 71.835 -261.99 71.835 -267 71 C-266.262 82.244 -264.659 92.534 -261.033 103.235 C-259.428 108.054 -258.687 111.916 -259 117 C-264.961 117.298 -270.065 116.208 -275.812 114.688 C-276.651 114.474 -277.49 114.261 -278.354 114.041 C-284.284 112.514 -290.139 110.773 -296 109 C-296.077 101.993 -296.129 94.987 -296.165 87.979 C-296.18 85.602 -296.2 83.224 -296.226 80.846 C-296.5 55.261 -296.5 55.261 -293 44 C-292.786 43.289 -292.572 42.578 -292.352 41.845 C-287.854 28.35 -279.256 17.174 -267 10 C-266.202 9.496 -265.404 8.992 -264.582 8.473 C-260.022 5.715 -257.398 4.9 -252 5 C-251.798 5.706 -251.597 6.412 -251.389 7.14 C-250.472 10.344 -249.548 13.547 -248.625 16.75 C-248.308 17.861 -247.991 18.972 -247.664 20.117 C-247.355 21.187 -247.045 22.257 -246.727 23.359 C-246.444 24.344 -246.161 25.328 -245.87 26.343 C-245.092 28.718 -244.124 30.778 -243 33 C-242.043 40.826 -243.311 48.528 -244.5 56.25 C-246.377 68.502 -246.303 80.634 -246 93 C-233.356 93.601 -220.722 94.101 -208.062 94.125 C-207.081 94.13 -206.099 94.134 -205.088 94.139 C-204.636 94.138 -204.636 94.138 -202.348 94.133 C-201.951 94.132 -201.951 94.132 -199.942 94.129 C-198 94 -198 94 -196 93 C-195.586 90.277 -195.586 90.277 -195.375 86.938 C-195.3 85.833 -195.225 84.728 -195.148 83.59 C-195.124 83.163 -195.124 83.163 -195 81 C-193.374 81.263 -191.749 81.536 -190.125 81.812 C-189.673 81.888 -189.673 81.888 -187.383 82.27 C-184.6 82.87 -182.008 83.607 -179.301 84.465 C-175.721 85.567 -172.238 86.359 -168.535 86.922 C-167.633 87.061 -166.732 87.2 -165.803 87.344 C-163.951 87.618 -162.097 87.873 -160.24 88.109 C-159.348 88.254 -158.455 88.398 -157.535 88.547 C-156.735 88.659 -155.934 88.771 -155.11 88.886 C-151.726 90.673 -151.26 93.47 -150 97 C-136.88 97.774 -123.8 98.186 -110.657 98.185 C-107.814 98.188 -104.972 98.206 -102.129 98.225 C-100.313 98.228 -98.496 98.23 -96.68 98.23 C-95.834 98.238 -94.988 98.245 -94.117 98.252 C-88.229 98.229 -88.229 98.229 -86 96 C-85.906 94.544 -85.873 93.084 -85.879 91.625 C-85.484 87.431 -85.484 87.431 -83.496 85.66 C-81.347 84.598 -79.204 83.781 -76.938 83 C-75.283 82.346 -73.63 81.686 -71.98 81.02 C-71.144 80.689 -70.308 80.359 -69.447 80.018 C-57.413 75.011 -46.792 67.506 -37 59 C-36.045 58.171 -35.09 57.342 -34.105 56.488 C-18.209 41.638 -7.056 20.388 0 0 Z " fill="#B6BCD4" transform="translate(509,266)"/>
<path d="M0 0 C8.026 22.626 9.764 46.864 11.127 70.646 C11.706 80.74 12.404 90.775 13.72 100.803 C14.033 103.256 14.308 105.711 14.582 108.168 C16.294 122.928 19.184 137.356 22.331 151.872 C22.919 154.622 23.478 157.376 24.02 160.137 C25.301 166.623 26.824 173.053 28.32 179.492 C28.537 180.433 28.753 181.374 28.977 182.344 C29.173 183.191 29.37 184.039 29.573 184.912 C30 187 30 187 30 189 C31.65 189 33.3 189 35 189 C35 189.33 35 189.66 35 190 C-54.1 190 -143.2 190 -235 190 C-235 189.67 -235 189.34 -235 189 C-233.02 189 -231.04 189 -229 189 C-228.866 188.361 -228.866 188.361 -228.188 185.125 C-227.498 181.837 -226.588 178.673 -225.578 175.473 C-223.449 168.457 -222.273 161.279 -220.982 154.072 C-219.929 148.363 -218.703 142.798 -217.121 137.211 C-214.163 126.399 -212.42 115.347 -210.5 104.312 C-209.743 99.996 -208.982 95.679 -208.219 91.363 C-208.034 90.314 -207.849 89.265 -207.659 88.183 C-206.47 81.48 -205.181 74.803 -203.816 68.133 C-202.241 60.427 -201.033 52.743 -200.135 44.928 C-200.081 44.507 -200.081 44.507 -199.809 42.379 C-199.724 41.653 -199.64 40.926 -199.552 40.178 C-198.091 34.417 -194.841 31.773 -189.883 28.766 C-182.43 24.518 -175.669 23.84 -167.216 23.771 C-163.085 23.734 -158.957 23.565 -154.828 23.418 C-153.96 23.39 -153.091 23.363 -152.197 23.335 C-142.599 23.009 -133.051 22.204 -123.489 21.325 C-120.702 21.07 -117.913 20.826 -115.125 20.583 C-105.781 19.739 -96.657 18.523 -87.458 16.68 C-82.991 15.802 -78.514 15.201 -74 14.625 C-57.431 12.365 -41.165 8.533 -24.875 4.812 C-23.778 4.563 -22.682 4.313 -21.552 4.055 C-17.47 3.11 -13.477 2.159 -9.5 0.832 C-6.272 -0.242 -3.376 -0.135 0 0 Z " fill="#B5BBD3" transform="translate(491,604)"/>
<path d="M0 0 C0.852 0.001 1.704 0.002 2.582 0.003 C16.176 0.053 28.91 1.103 41.875 5.5 C42.968 5.861 44.061 6.222 45.188 6.594 C48.193 7.737 51.002 9.054 53.875 10.5 C54.582 10.847 55.289 11.194 56.018 11.551 C70.674 18.776 82.998 27.197 94.875 38.5 C95.431 39.023 95.986 39.546 96.559 40.085 C117.982 60.368 135.453 85.804 146.855 113.085 C147.609 114.871 148.384 116.647 149.171 118.419 C153.089 127.318 156.351 136.326 159.375 145.562 C159.494 145.923 159.494 145.923 160.096 147.747 C167.715 170.857 175.262 194.587 178.453 218.773 C178.886 221.574 179.559 224.207 180.312 226.938 C184.255 242.112 185.246 258.204 186.873 273.752 C186.99 274.848 187.106 275.945 187.227 277.074 C187.328 278.05 187.429 279.025 187.534 280.03 C187.875 282.5 187.875 282.5 188.875 285.5 C189.006 288.838 188.918 292.157 188.875 295.5 C185.245 295.5 181.615 295.5 177.875 295.5 C177.832 294.901 177.832 294.901 177.613 291.871 C176.347 276.434 173.296 263.212 163.875 250.5 C163.388 249.806 162.9 249.113 162.398 248.398 C150.581 233.188 128.725 224.635 110.929 219.167 C108.985 218.536 107.078 217.796 105.176 217.051 C99.432 214.861 93.459 213.476 87.5 212 C86.878 211.845 86.878 211.845 83.727 211.062 C74.847 208.892 66 207.14 56.96 205.815 C53.213 205.249 49.482 204.593 45.75 203.938 C45.075 203.822 44.4 203.707 43.704 203.589 C39.026 202.772 34.468 201.692 29.875 200.5 C29.545 195.88 29.215 191.26 28.875 186.5 C27.555 186.5 26.235 186.5 24.875 186.5 C14.691 215.105 14.646 247.004 13.201 277.055 C12.836 284.541 12.363 292.02 11.875 299.5 C5.843 299.525 -0.19 299.543 -6.222 299.555 C-8.273 299.56 -10.325 299.567 -12.376 299.575 C-15.328 299.588 -18.279 299.593 -21.23 299.598 C-22.145 299.603 -23.06 299.608 -24.002 299.613 C-28.174 299.614 -32.059 299.567 -36.125 298.5 C-36.15 294.378 -36.168 290.256 -36.18 286.134 C-36.185 284.74 -36.192 283.346 -36.2 281.952 C-36.255 273.107 -35.98 264.377 -35.368 255.55 C-35.097 251.386 -34.989 247.226 -34.914 243.055 C-34.901 242.35 -34.888 241.644 -34.875 240.918 C-34.862 240.208 -34.848 239.497 -34.835 238.765 C-34.27 208.172 -30.192 181.954 -15.516 154.797 C-15.352 154.494 -15.352 154.494 -14.526 152.963 C-12.879 149.913 -11.222 146.869 -9.543 143.836 C-5.398 136.248 -2.04 128.637 0.875 120.5 C1.029 120.095 1.029 120.095 1.81 118.045 C8.828 99.557 7.058 77.846 -0.82 59.891 C-8.456 45.899 -20.462 35.622 -35.125 29.5 C-47.411 25.93 -62.543 26.38 -75.125 28.5 C-70.433 17.68 -56.881 11.274 -46.453 6.992 C-31.13 1.594 -16.133 -0.086 0 0 Z " fill="#525774" transform="translate(404.125,36.5)"/>
<path d="M0 0 C9.233 -0.276 17.896 0.524 27 2 C30.165 2.487 33.333 2.962 36.5 3.438 C37.328 3.563 38.156 3.688 39.009 3.817 C48.991 5.318 58.995 6.661 69 8 C69.366 14.882 68.759 20.791 66.936 27.424 C65.782 31.832 64.861 36.27 63.949 40.734 C63.859 41.174 63.859 41.174 63.401 43.401 C63.024 45.238 62.647 47.076 62.27 48.913 C55.487 81.939 55.487 81.939 51 98 C50.895 98.381 50.895 98.381 50.361 100.307 C47.601 110.049 44.843 117.316 35.875 122.625 C25.647 127.738 15.317 131.233 4.25 134.062 C3.007 134.388 1.765 134.713 0.484 135.049 C-3.34 136.046 -7.169 137.026 -11 138 C-11.322 138.082 -11.322 138.082 -12.952 138.5 C-22.557 140.957 -32.195 143.203 -41.88 145.321 C-55.59 148.322 -69.273 151.423 -82.93 154.654 C-88.792 156.036 -94.659 157.393 -100.539 158.699 C-101.657 158.949 -102.776 159.199 -103.928 159.456 C-106.704 159.948 -109.191 160.109 -112 160 C-112.049 159.473 -112.049 159.473 -112.297 156.809 C-113.446 145.388 -114.834 133.586 -120.312 123.312 C-122 120 -122 120 -121.984 117.941 C-121 116 -121 116 -118.402 114.727 C-117.259 114.363 -116.116 114 -114.938 113.625 C-113.653 113.199 -112.369 112.772 -111.086 112.344 C-110.414 112.125 -109.742 111.905 -109.05 111.68 C-98.961 108.334 -89.253 104.307 -79.668 99.73 C-71.507 95.844 -63.137 92.418 -54.723 89.121 C-51.973 87.989 -49.273 86.764 -46.567 85.532 C-38.989 82.103 -31.371 79.371 -23.383 77.042 C-14.904 74.528 -14.904 74.528 -12 72 C-11.174 69.426 -10.713 67.33 -10.375 64.688 C-10.318 64.313 -10.318 64.313 -10.029 62.417 C-9.66 59.948 -9.326 57.475 -9 55 C-8.776 53.335 -8.552 51.669 -8.328 50.004 C-7.972 47.35 -7.618 44.695 -7.27 42.04 C-6.164 33.785 -4.794 25.581 -3.375 17.375 C-3.157 16.111 -2.938 14.848 -2.713 13.546 C-1.005 3.785 -1.005 3.785 0 0 Z " fill="#B6BCD4" transform="translate(481,437)"/>
<path d="M0 0 C0.886 -0.003 1.771 -0.006 2.684 -0.01 C17.521 0.11 30.705 5.588 41.383 15.934 C54.98 31.212 55.576 49.921 54.5 69.312 C53.922 74.269 52.41 78.711 50.5 83.312 C50.371 83.636 50.371 83.636 49.719 85.273 C45.928 94.715 41.317 103.615 36.375 112.5 C20.329 141.416 16.549 170.744 14.5 203.312 C8.421 203.468 4.083 202.511 -1.5 200.312 C-2.552 199.9 -3.604 199.488 -4.688 199.062 C-12.688 194.084 -17.363 185.36 -19.5 176.312 C-21.799 159.985 -17.839 144.566 -11.477 129.617 C-10.341 126.938 -9.319 124.23 -8.312 121.5 C-7.989 120.627 -7.665 119.755 -7.332 118.855 C-4.462 110.083 -4.533 101.962 -8.301 93.5 C-10.608 89.291 -13.785 86.827 -17.625 84.062 C-20.554 81.261 -20.922 80.502 -21.875 76.812 C-22.918 73.162 -23.924 71.517 -27.125 69.438 C-32.811 66.412 -38.681 64.621 -45 63.5 C-51.568 62.108 -56.492 58.418 -61.062 53.625 C-63.198 48.704 -63.659 44.576 -62.5 39.312 C-60.347 35.478 -57.513 32.493 -54.5 29.312 C-53.619 28.301 -52.743 27.285 -51.871 26.266 C-38.887 11.272 -20.298 -0.369 0 0 Z " fill="#B5BBD3" transform="translate(345.5,72.6875)"/>
<path d="M0 0 C8.259 0.673 16.197 2.506 24.25 4.375 C25.592 4.683 26.935 4.99 28.277 5.297 C33.403 6.471 38.527 7.654 43.646 8.856 C48.977 10.103 54.269 11.312 59.688 12.125 C64.791 12.896 64.791 12.896 67 14 C66.425 19.225 65.574 24.15 64.25 29.25 C63.892 30.643 63.534 32.036 63.176 33.43 C63.081 33.797 63.081 33.797 62.6 35.655 C61.963 38.145 61.345 40.638 60.73 43.133 C60.516 44.004 60.301 44.875 60.079 45.772 C59.664 47.455 59.251 49.138 58.839 50.821 C57.404 56.608 55.756 62.303 54 68 C53.583 69.364 53.166 70.728 52.75 72.092 C51.522 76.102 50.28 80.107 49.031 84.111 C48.514 85.775 48 87.44 47.49 89.107 C44.819 97.827 42.016 106.427 38.41 114.812 C38.141 115.447 37.872 116.082 37.594 116.737 C34.411 123.873 29.491 129.509 24 135 C16.368 135.374 8.729 132.746 1.5 130.625 C0.437 130.321 -0.627 130.017 -1.723 129.703 C-3.82 129.101 -5.915 128.493 -8.008 127.878 C-9.957 127.306 -11.908 126.744 -13.863 126.192 C-14.741 125.941 -15.619 125.689 -16.523 125.43 C-17.291 125.213 -18.058 124.996 -18.849 124.773 C-34.005 119.326 -41.77 99.023 -49 86 C-49.511 85.083 -50.022 84.165 -50.548 83.22 C-56.394 72.711 -56.394 72.711 -58.828 68.177 C-59.614 66.718 -60.416 65.268 -61.234 63.827 C-64.055 58.662 -64.055 58.662 -63.75 55 C-63.502 54.34 -63.255 53.68 -63 53 C-62.094 52.792 -61.188 52.585 -60.254 52.371 C-52.962 50.527 -47.385 48.502 -41.672 43.391 C-40 42 -40 42 -38 42 C-37.734 41.428 -37.469 40.855 -37.195 40.266 C-35.943 37.892 -34.506 35.878 -32.875 33.75 C-32.336 33.044 -31.797 32.337 -31.242 31.609 C-30.832 31.078 -30.422 30.547 -30 30 C-26.67 30.216 -25.858 31.159 -23.59 33.703 C-22.696 34.878 -21.813 36.061 -20.938 37.25 C-19.961 38.538 -18.981 39.825 -18 41.109 C-17.502 41.762 -17.005 42.415 -16.492 43.088 C-14.238 45.977 -11.839 48.733 -9.438 51.5 C-1.148 61.165 5.935 71.48 12.211 82.551 C14 85 14 85 16.227 85.855 C16.812 85.903 17.397 85.951 18 86 C16.082 71.05 7.546 59.157 -2.457 48.344 C-3.193 47.529 -3.929 46.714 -4.688 45.875 C-5.351 45.192 -6.015 44.509 -6.699 43.805 C-10.643 35.302 -5.572 23.086 -3.438 14.312 C-3.104 12.917 -2.771 11.522 -2.439 10.127 C-1.634 6.749 -0.82 3.374 0 0 Z " fill="#B5BBD3" transform="translate(201,420)"/>
<path d="M0 0 C4.846 0.748 9.247 2.468 13.812 4.188 C14.232 4.344 14.232 4.344 16.354 5.134 C18.904 6.085 21.453 7.042 24 8 C24.733 8.276 25.467 8.551 26.223 8.835 C27.594 9.351 28.965 9.867 30.336 10.382 C33.556 11.592 36.777 12.798 40 14 C41.158 14.432 42.315 14.864 43.508 15.309 C55.344 19.636 67.423 23.116 79.605 26.324 C81.318 26.808 83.016 27.347 84.7 27.923 C88.172 29.056 91.655 29.999 95.191 30.91 C95.859 31.083 96.527 31.255 97.215 31.432 C98.617 31.794 100.02 32.154 101.423 32.514 C103.56 33.062 105.697 33.614 107.834 34.166 C119.22 37.097 119.22 37.097 124 38 C123 41 123 41 120.715 42.324 C119.798 42.774 118.882 43.224 117.938 43.688 C113.245 46.379 113.245 46.379 112.199 49.027 C112.075 52.536 112.75 54.675 114.875 57.438 C121.072 61.994 130.607 60.512 138 60 C140.828 59.425 143.321 58.721 145.992 57.656 C148.403 56.868 150.48 56.895 153 57 C149.232 61.174 145.554 63.59 140.5 66 C140.145 66.172 140.145 66.172 138.346 67.042 C127.768 72.091 117.348 75.519 105.942 78.128 C97.806 79.998 89.891 82.283 82 85 C81.369 85.217 80.737 85.435 80.086 85.659 C66.457 90.423 53.202 96.317 40.312 102.812 C39.574 103.184 38.835 103.555 38.074 103.938 C36.65 104.667 35.236 105.419 33.832 106.188 C26.784 109.78 19.91 110.167 12.223 108.34 C5.394 105.968 1.542 102.22 -2.137 96.113 C-4.238 90.97 -3.809 84.244 -1.75 79.125 C2.115 72.223 6.679 68.11 14 65 C21.11 63.564 26.599 65.198 32.906 68.516 C35.896 70.635 37.67 72.568 38.504 76.184 C38.624 80.786 38.547 82.402 35.312 85.938 C29.512 89.549 25.77 90.437 19 90 C18.505 89.67 18.505 89.67 16 88 C16.33 85.69 16.66 83.38 17 81 C19.64 81 22.28 81 25 81 C24.67 79.35 24.34 77.7 24 76 C15.16 75.393 15.16 75.393 11.375 77.375 C8.608 82.658 9.497 89.362 11 95 C18.191 97.615 25.774 98.555 33.078 95.867 C38.575 93.06 42.229 90.541 45 85 C45.349 84.386 45.699 83.773 46.059 83.141 C47.927 78.892 47.681 74.523 47 70 C45.444 66.329 43.325 63.227 41 60 C40.47 59.234 39.94 58.469 39.395 57.68 C38.261 56.048 37.117 54.423 35.965 52.805 C33.687 49.554 31.5 46.249 29.312 42.938 C23.18 33.682 16.735 24.653 10.298 15.608 C8.613 13.24 6.932 10.87 5.25 8.5 C4.724 7.763 4.198 7.027 3.657 6.268 C0 1.113 0 1.113 0 0 Z " fill="#F5DFAD" transform="translate(107,527)"/>
<path d="M0 0 C0.115 0.479 0.115 0.479 0.699 2.902 C4.016 16.512 7.442 30.109 13 43 C13.356 43.87 13.712 44.74 14.078 45.637 C15.36 48.769 16.677 51.885 18 55 C18.268 55.639 18.535 56.278 18.811 56.937 C35.125 95.718 59.679 130.555 89.91 159.75 C92 162 92 162 92 164 C84.933 164.609 84.933 164.609 80.938 162 C78.175 159.34 75.647 156.459 73.164 153.539 C71.491 151.576 69.799 149.639 68.086 147.711 C44.245 120.77 26.005 90.623 11 58 C10.779 57.526 10.779 57.526 9.662 55.129 C7.328 50.08 5.206 45.106 3.5 39.812 C3.298 39.189 3.097 38.566 2.889 37.924 C2.468 36.616 2.049 35.306 1.634 33.996 C0.992 31.974 0.337 29.958 -0.32 27.941 C-2.979 19.699 -5.214 11.481 -7 3 C-9.97 3 -12.94 3 -16 3 C-15.027 16.033 -11.469 28.092 -7.457 40.461 C-6.311 43.996 -5.267 47.55 -4.25 51.125 C7.487 89.124 27.211 124.502 51.937 155.507 C52.467 156.181 52.997 156.856 53.543 157.551 C54.018 158.145 54.492 158.74 54.981 159.353 C56 161 56 161 56 164 C52.329 164.009 50.076 163.951 47.271 161.472 C45.473 159.335 43.819 157.141 42.188 154.875 C41.585 154.07 40.983 153.265 40.362 152.435 C35.684 146.12 31.252 139.64 26.988 133.039 C23.633 127.911 23.633 127.911 22 126 C21.34 126 20.68 126 20 126 C19.694 126.552 19.388 127.105 19.073 127.674 C13.68 137.37 8.224 147.039 2.125 156.312 C1.698 156.993 1.271 157.674 0.831 158.375 C-0.43 160.238 -0.43 160.238 -3 163 C-6.32 163.418 -6.32 163.418 -9 163 C-7.525 158.657 -5.169 155.31 -2.438 151.688 C3.084 144.17 7.638 136.232 12 128 C12.378 127.325 12.756 126.651 13.146 125.956 C15.375 121.832 16.763 118.797 16 114 C14.539 110.789 14.539 110.789 12.625 107.625 C11.999 106.565 11.372 105.506 10.727 104.414 C10.157 103.617 9.587 102.821 9 102 C8.34 102 7.68 102 7 102 C6.745 102.491 6.491 102.981 6.228 103.487 C-2.973 121.062 -13.691 137.442 -26 153 C-26.36 153.464 -26.36 153.464 -28.18 155.812 C-28.739 156.534 -29.299 157.256 -29.875 158 C-30.162 158.371 -30.162 158.371 -31.617 160.25 C-33 162 -33 162 -34 163 C-36 163.041 -38 163.043 -40 163 C-38.732 159.371 -37.367 157.049 -34.688 154.312 C-20.736 139.095 -9.637 120.638 1 103 C1.558 102.118 2.116 101.237 2.691 100.328 C4.618 96.9 4.505 94.913 4 91 C2.822 88.044 1.509 85.205 0.094 82.355 C-1 80 -1 80 -1 78 C-5.129 79.376 -5.912 82.094 -7.812 85.75 C-18.989 106.372 -33.06 125.495 -48.504 143.109 C-51 146 -51 146 -52.715 148.391 C-52.927 148.656 -52.927 148.656 -54 150 C-54.66 150 -55.32 150 -56 150 C-56.33 150.66 -56.33 150.66 -58 154 C-59.278 151.445 -58.837 150.549 -58.18 147.801 C-57.977 146.933 -57.774 146.066 -57.564 145.172 C-57.451 144.7 -57.451 144.7 -56.875 142.312 C-56.403 140.296 -55.931 138.279 -55.461 136.262 C-55.339 135.742 -55.339 135.742 -54.722 133.111 C-52.931 125.392 -51.281 117.642 -49.621 109.895 C-49.212 107.991 -48.803 106.087 -48.391 104.184 C-43.121 79.759 -38.823 55.145 -34.648 30.513 C-34.109 27.34 -33.559 24.169 -33 21 C-32.83 20.031 -32.66 19.063 -32.484 18.065 C-32.318 17.171 -32.152 16.277 -31.98 15.355 C-31.838 14.577 -31.695 13.799 -31.548 12.997 C-30.131 7.831 -25.383 5.414 -21.125 2.688 C-14.177 -1.029 -7.684 -0.56 0 0 Z " fill="#9399B4" transform="translate(324,629)"/>
<path d="M0 0 C7.437 4.433 11.41 11.259 16.069 18.35 C20.025 24.37 24.125 30.283 28.25 36.188 C33.222 43.31 38.171 50.447 43.062 57.625 C49.337 66.829 55.723 75.952 62.132 85.062 C65.438 89.809 65.438 89.809 65.438 92.938 C64.35 92.94 63.262 92.943 62.141 92.945 C51.655 93.148 42.566 94.245 34.512 101.727 C30.339 106.758 28.366 112.767 26.438 118.938 C23.363 117.62 21.807 116.473 20.052 113.632 C19.629 112.961 19.206 112.29 18.77 111.599 C18.324 110.871 17.878 110.144 17.418 109.395 C16.437 107.837 15.454 106.281 14.47 104.725 C13.968 103.927 13.465 103.129 12.948 102.307 C10.612 98.642 8.181 95.044 5.738 91.449 C5.257 90.739 4.776 90.029 4.28 89.298 C3.284 87.829 2.288 86.362 1.291 84.894 C-1.409 80.919 -4.101 76.938 -6.793 72.957 C-7.346 72.14 -7.898 71.323 -8.468 70.481 C-14.153 62.071 -19.817 53.648 -25.459 45.209 C-26.524 43.617 -27.59 42.026 -28.658 40.436 C-30.14 38.228 -31.617 36.017 -33.094 33.805 C-33.534 33.15 -33.975 32.496 -34.428 31.821 C-38.387 25.869 -39.609 21.02 -38.562 13.938 C-35.581 6.814 -30.25 2.504 -23.562 -1.062 C-16.302 -3.483 -6.95 -3.231 0 0 Z " fill="#F6E0AD" transform="translate(70.5625,492.0625)"/>
<path d="M0 0 C1.147 -0.021 2.295 -0.041 3.477 -0.062 C10.635 -0.095 17.027 0.704 23.951 2.535 C28.219 3.579 32.499 3.964 36.875 4.25 C37.84 6.581 38.797 8.914 39.75 11.25 C40.019 11.898 40.289 12.547 40.566 13.215 C44.789 23.618 47.076 35.047 44.875 46.25 C42.606 49.718 39.603 50.645 35.875 52.25 C33.264 53.779 30.733 55.428 28.188 57.062 C26.791 57.931 25.394 58.799 23.996 59.664 C21.383 61.293 18.792 62.95 16.223 64.648 C-7.86 80.556 -7.86 80.556 -21.688 80.5 C-22.328 80.503 -22.328 80.503 -25.566 80.516 C-28.894 80.267 -31.146 79.691 -34.125 78.25 C-34.125 77.59 -34.125 76.93 -34.125 76.25 C-33.45 76.057 -32.774 75.863 -32.078 75.664 C-31.186 75.404 -30.294 75.143 -29.375 74.875 C-28.493 74.62 -27.612 74.365 -26.703 74.102 C-24.326 73.316 -22.247 72.578 -20.125 71.25 C-19.96 70.755 -19.96 70.755 -19.125 68.25 C-23.821 68.704 -28.338 69.261 -32.938 70.312 C-40.531 71.9 -48.538 71.936 -56.125 70.25 C-55.96 69.755 -55.96 69.755 -55.125 67.25 C-53.363 66.498 -53.363 66.498 -51.082 65.969 C-50.255 65.766 -49.428 65.564 -48.576 65.355 C-47.705 65.156 -46.835 64.956 -45.938 64.75 C-40.245 63.414 -35.342 61.973 -30.125 59.25 C-29.135 59.25 -28.145 59.25 -27.125 59.25 C-27.29 58.59 -27.29 58.59 -28.125 55.25 C-33.331 55.666 -38.043 56.725 -43.062 58.188 C-43.673 58.365 -43.673 58.365 -46.762 59.262 C-48.643 59.815 -50.522 60.374 -52.395 60.957 C-62.73 63.791 -76.445 64.002 -86.125 59.25 C-86.29 58.755 -86.29 58.755 -87.125 56.25 C-80.558 53.939 -73.938 52.127 -67.188 50.438 C-23.34 39.122 -23.34 39.122 -11.125 23.25 C-10.371 19.98 -10.371 19.98 -10.125 17.25 C-28.908 16.724 -28.908 16.724 -37.414 19.582 C-42.868 20.926 -48.547 20.47 -54.125 20.25 C-54.29 19.59 -54.29 19.59 -55.125 16.25 C-46.282 11.622 -37.59 7.443 -28.113 4.258 C-25.125 3.25 -25.125 3.25 -22.668 2.18 C-15.444 -0.461 -7.585 0.033 0 0 Z " fill="#B4BAD2" transform="translate(283.125,560.75)"/>
<path d="M0 0 C13.072 5.546 20.58 20.786 25.785 33.125 C30.697 45.373 37.717 63.336 33.164 76.398 C28.924 84.737 22.347 90.214 13.578 93.348 C5.716 95.337 -2.462 94.377 -9.625 90.625 C-16.083 86.75 -22.749 82.334 -27 76 C-28.066 70.325 -25.453 65.013 -23 60 C-18.71 60 -14.42 60 -10 60 C-8 64 -8 64 -7.188 67.188 C-5.119 73.829 -2.21 80.389 4 84 C6.662 84.859 9.249 85.441 12 86 C11.454 82.29 10.204 81.085 7.25 78.875 C-0.206 72.608 -2.661 64.392 -4 55 C-5.111 54.914 -6.222 54.827 -7.367 54.738 C-16.796 53.891 -25.231 52.874 -32.738 46.531 C-34 45 -34 45 -34.312 41.938 C-34 39 -34 39 -32 37 C-29.059 36.825 -26.213 36.769 -23.273 36.805 C-22.842 36.806 -22.842 36.806 -20.659 36.813 C-17.897 36.824 -15.136 36.85 -12.375 36.875 C-10.505 36.885 -8.635 36.894 -6.766 36.902 C-2.177 36.924 2.411 36.959 7 37 C7 35.35 7 33.7 7 32 C6.371 32.012 5.742 32.023 5.094 32.035 C-0.381 32.093 -5.585 31.802 -11 31 C-9.683 24.453 -7.854 18.369 -5.5 12.125 C-5.346 11.705 -5.346 11.705 -4.566 9.578 C-3.259 6.066 -2.092 3.139 0 0 Z " fill="#B3B9D1" transform="translate(121,355)"/>
<path d="M0 0 C0.135 0.629 0.271 1.258 0.41 1.906 C2.363 9.672 5.434 15.184 12.375 19.465 C19.862 23.13 27.935 25.052 36 27 C36 27.66 36 28.32 36 29 C35.086 29.034 34.173 29.069 33.231 29.104 C12.778 29.929 -6.953 31.57 -27 36 C-27.885 36.195 -28.771 36.389 -29.683 36.59 C-62.391 44.009 -91.993 58.64 -117 81 C-117.825 81.728 -118.65 82.457 -119.5 83.207 C-125.225 88.565 -129.205 94.603 -133.25 101.254 C-133.827 102.16 -134.405 103.066 -135 104 C-135.33 104 -135.66 104 -136 104 C-136.499 97.178 -135.036 92.754 -132 86.688 C-131.796 86.27 -131.796 86.27 -130.762 84.156 C-125.382 73.429 -118.211 64.692 -110 56 C-109.376 55.323 -108.752 54.646 -108.109 53.949 C-91.94 36.999 -68.84 24.032 -47 16 C-45.651 15.477 -44.304 14.95 -42.957 14.422 C-34.796 11.219 -26.616 8.073 -18.39 5.042 C-15.3 3.896 -12.265 2.685 -9.258 1.34 C-5.885 -0.047 -3.605 -0.264 0 0 Z " fill="#B3B9D2" transform="translate(273,121)"/>
<path d="M0 0 C0.998 3.288 1.077 6.187 0.992 9.613 C0.975 10.697 0.959 11.78 0.941 12.896 C0.897 15.162 0.845 17.428 0.785 19.693 C0.702 26.06 1.147 30.324 4 36 C4.808 44.126 0.942 53.529 -1.729 61.055 C-3.814 66.962 -5.043 72.826 -6.062 79 C-6.232 79.996 -6.401 80.992 -6.575 82.018 C-8.011 90.655 -9.075 99.294 -10 108 C-20.89 108 -31.78 108 -43 108 C-43 99.473 -42.55 92.72 -40.938 84.562 C-40.717 83.434 -40.497 82.306 -40.27 81.144 C-38.126 70.721 -34.981 60.857 -31 51 C-30.59 49.984 -30.18 48.968 -29.758 47.922 C-28.589 45.23 -27.323 42.62 -26 40 C-25.704 39.397 -25.409 38.794 -25.104 38.172 C-18.302 24.358 -9.992 11.724 0 0 Z " fill="#525774" transform="translate(316,224)"/>
<path d="M0 0 C0.412 0.006 0.412 0.006 2.496 0.035 C3.322 0.044 4.149 0.053 5 0.062 C5.638 0.074 6.276 0.086 6.934 0.098 C8.328 3.418 9.41 6.663 10.266 10.16 C10.504 11.116 10.743 12.071 10.989 13.056 C11.239 14.06 11.489 15.063 11.746 16.098 C13.946 24.731 16.452 32.889 19.934 41.098 C20.539 42.66 21.143 44.222 21.746 45.785 C37.78 85.331 59.796 120.341 88.801 151.621 C91.694 154.98 94.308 158.528 96.934 162.098 C75.489 165.265 75.489 165.265 68.343 160.296 C63.873 155.686 60.616 150.356 57.486 144.779 C55.388 141.155 52.99 137.784 50.554 134.382 C28.666 103.534 12.551 67.523 3.223 30.945 C2.189 26.918 0.93 23.007 -0.415 19.073 C-2.314 13.313 -3.533 7.169 -3.066 1.098 C-2.066 0.098 -2.066 0.098 0 0 Z " fill="#B6BCD4" transform="translate(310.06640625,630.90234375)"/>
<path d="M0 0 C0.66 0 1.32 0 2 0 C11.824 31.111 13.936 65.575 13 98 C12.348 98.055 12.348 98.055 9.047 98.332 C-13.217 100.308 -13.217 100.308 -22.625 104.688 C-27.15 106.447 -31.205 106.261 -36 106 C-36.33 105.01 -36.66 104.02 -37 103 C-35.765 100.6 -34.472 98.356 -33.062 96.062 C-16.949 68.528 -9.205 35.701 -1.762 4.922 C-1 2 -1 2 0 0 Z " fill="#FFFFFF" transform="translate(274,453)"/>
<path d="M0 0 C1.981 4.953 2.087 8.761 2 14 C-10.549 17.043 -23.157 19.806 -35.777 22.537 C-47.011 24.974 -47.011 24.974 -51.602 26.152 C-54.677 26.919 -57.678 27.487 -60.812 27.938 C-64.576 28.483 -68.335 29.049 -72.087 29.668 C-83.408 31.528 -94.747 33.013 -106.146 34.308 C-108.96 34.628 -111.774 34.954 -114.588 35.281 C-139.795 38.195 -139.795 38.195 -151.75 38.062 C-152.152 38.06 -152.152 38.06 -154.188 38.049 C-156.125 38.037 -158.063 38.019 -160 38 C-160 37.34 -160 36.68 -160 36 C-155.406 32.277 -149.642 31.631 -144 30.5 C-142.041 30.095 -140.083 29.688 -138.125 29.281 C-137.624 29.178 -137.624 29.178 -135.086 28.654 C-130.869 27.76 -126.675 26.777 -122.477 25.799 C-118.708 24.933 -114.932 24.101 -111.152 23.281 C-110.817 23.208 -110.817 23.208 -109.118 22.839 C-106.366 22.242 -103.615 21.646 -100.863 21.052 C-94.115 19.594 -87.38 18.123 -80.691 16.406 C-76.118 15.239 -71.548 14.349 -66.899 13.541 C-61.201 12.478 -55.576 11.088 -49.938 9.75 C-48.626 9.442 -47.315 9.135 -46.003 8.828 C-39.512 7.307 -33.025 5.767 -26.543 4.207 C-24.237 3.659 -21.931 3.111 -19.625 2.562 C-18.569 2.304 -17.513 2.045 -16.426 1.778 C-10.794 0.447 -5.787 -0.283 0 0 Z " fill="#B2B8D0" transform="translate(486,582)"/>
<path d="M0 0 C5.224 -0.1 9.094 0.398 14 2 C11.961 20.167 0.758 36.574 -11 50 C-11.323 50.389 -11.323 50.389 -12.957 52.359 C-24.372 65.844 -43.794 81.198 -62 83 C-62.162 80.248 -62.281 77.505 -62.375 74.75 C-62.425 73.973 -62.476 73.195 -62.527 72.395 C-62.585 70.127 -62.542 68.204 -62 66 C-58.33 62.692 -53.984 61.012 -49.5 59 C-41.169 55.01 -34.63 49.356 -28 43 C-27.504 42.53 -27.007 42.059 -26.496 41.575 C-14.537 30.035 -6.373 15.219 0 0 Z " fill="#F3DDAC" transform="translate(487,260)"/>
<path d="M0 0 C0 0.33 0 0.66 0 1 C-2.31 1 -4.62 1 -7 1 C4.894 28.188 17.048 55.054 35.707 78.372 C37.052 80.066 38.372 81.778 39.688 83.496 C45.745 91.378 52.11 98.835 59 106 C59.259 106.27 59.259 106.27 60.571 107.638 C67.655 114.977 74.969 121.691 83 128 C83.75 128.629 84.5 129.258 85.273 129.906 C102.873 144.562 123.392 156.15 144 166 C144 166.33 144 166.66 144 167 C120.171 168.474 99.988 149.791 82 136 C81.081 135.299 80.162 134.597 79.215 133.875 C72.103 128.324 65.526 122.219 59 116 C58.724 115.739 58.724 115.739 57.33 114.417 C49.544 106.992 42.743 99.178 36.248 90.611 C34.409 88.237 32.449 85.971 30.5 83.688 C13.496 62.979 1.273 37.388 -10.25 13.375 C-10.791 12.248 -11.333 11.122 -11.891 9.961 C-12.981 7.052 -13.251 5.071 -13 2 C-15.64 2 -18.28 2 -21 2 C-21 1.67 -21 1.34 -21 1 C-13.984 0.401 -7.043 -0.138 0 0 Z " fill="#9399B4" transform="translate(368,626)"/>
<path d="M0 0 C3.591 2.394 3.872 3.669 5.188 7.688 C5.532 8.702 5.876 9.716 6.23 10.762 C8.216 19.116 6.058 23.684 1.812 30.75 C1.272 31.669 0.732 32.588 0.175 33.534 C-9.376 49.565 -20.348 64.447 -32 79 C-32.486 79.61 -32.972 80.22 -33.473 80.849 C-38.805 87.528 -38.805 87.528 -41 90 C-41.33 90 -41.66 90 -42 90 C-42.429 82.482 -40.82 75.673 -39.125 68.375 C-38.856 67.174 -38.586 65.972 -38.309 64.734 C-34.842 49.482 -34.842 49.482 -29 45 C-27 42.658 -25.254 40.154 -23.5 37.625 C-22.99 36.897 -22.479 36.169 -21.953 35.419 C-16.478 27.47 -11.638 19.154 -6.812 10.801 C-4.67 7.099 -2.429 3.52 0 0 Z " fill="#B5BBD3" transform="translate(311,681)"/>
<path d="M0 0 C2.67 1.457 5.168 3.017 7.668 4.746 C12.136 7.337 15.636 8.172 20.715 8.535 C22.668 8.746 22.668 8.746 24.668 9.746 C24.293 12.184 24.293 12.184 23.668 14.746 C21.365 15.898 20.033 15.778 17.48 15.809 C14.547 16.103 13.094 16.367 10.871 18.344 C9.75 19.729 8.647 21.128 7.559 22.539 C2.473 28.476 -3.741 32.294 -11.469 33.055 C-19.898 33.361 -25.062 32.534 -31.332 26.746 C-34.277 23.945 -35.177 22.535 -35.957 18.559 C-34.799 11.497 -31.043 5.667 -25.52 1.121 C-18.135 -3.252 -7.862 -2.959 0 0 Z " fill="#343955" transform="translate(345.33203125,91.25390625)"/>
<path d="M0 0 C3.25 -0.062 3.25 -0.062 7 1 C10.44 5.73 11.638 11.98 13.223 17.531 C14.23 20.731 15.569 23.707 16.98 26.746 C17.996 28.992 18.877 31.258 19.75 33.562 C22.382 40.199 25.645 46.522 28.906 52.865 C29.981 54.963 31.04 57.069 32.098 59.176 C50.65 95.651 79.43 130.192 111.836 155.188 C112.736 155.889 113.635 156.59 114.562 157.312 C115.368 157.927 116.174 158.542 117.004 159.176 C119.019 161.017 119.977 162.494 121 165 C114.519 165.381 111.512 164.114 106.605 159.984 C105.808 159.247 105.01 158.51 104.188 157.75 C101.15 154.968 98.11 152.2 95 149.5 C84.108 139.986 73.516 130.44 64.477 119.102 C62.64 116.802 60.785 114.531 58.898 112.273 C51.635 103.541 45.049 94.611 39 85 C38.299 83.903 37.597 82.806 36.875 81.676 C30.395 71.33 24.94 60.418 19.379 49.562 C16.997 44.915 14.562 40.302 12.069 35.713 C5.798 24.136 1.449 13.212 0 0 Z " fill="#9399B4" transform="translate(334,628)"/>
<path d="M0 0 C3.96 0 7.92 0 12 0 C12.183 0.392 12.183 0.392 13.111 2.376 C25.812 29.436 40.161 53.489 60 76 C60.229 76.26 60.229 76.26 61.387 77.578 C67.522 84.521 73.935 90.988 81 97 C81.851 97.727 82.702 98.454 83.578 99.203 C99.059 112.149 120.745 130.028 141 134 C141 132.35 141 130.7 141 129 C141.33 129 141.66 129 142 129 C142.33 131.145 142.33 131.145 144 142 C138.331 141.055 134.506 139.677 129.438 137.25 C128.617 136.858 127.796 136.466 126.951 136.062 C111.93 128.694 97.962 119.551 85 109 C84.089 108.291 83.177 107.582 82.238 106.852 C77.772 103.366 73.634 99.781 69.703 95.703 C67.921 93.921 66.052 92.311 64.125 90.688 C47.129 75.984 34.353 56.107 22.422 37.247 C21.454 35.718 20.483 34.191 19.508 32.667 C5.631 10.926 5.631 10.926 6 1 C4.02 1 2.04 1 0 1 C0 0.67 0 0.34 0 0 Z " fill="#9399B4" transform="translate(371,625)"/>
<path d="M0 0 C0.697 0.009 1.395 0.018 2.113 0.027 C3.826 0.051 5.538 0.087 7.25 0.125 C7.481 1.083 7.711 2.041 7.949 3.027 C11.266 16.637 14.692 30.234 20.25 43.125 C20.428 43.56 20.428 43.56 21.328 45.762 C22.61 48.894 23.927 52.01 25.25 55.125 C25.518 55.764 25.785 56.403 26.061 57.062 C42.375 95.843 66.929 130.68 97.16 159.875 C99.25 162.125 99.25 162.125 99.25 164.125 C92.183 164.734 92.183 164.734 88.188 162.125 C85.425 159.465 82.897 156.584 80.414 153.664 C78.741 151.701 77.049 149.764 75.336 147.836 C51.495 120.895 33.255 90.748 18.25 58.125 C18.029 57.651 18.029 57.651 16.912 55.254 C14.578 50.205 12.456 45.231 10.75 39.938 C10.548 39.314 10.347 38.691 10.139 38.049 C9.718 36.741 9.299 35.431 8.884 34.121 C8.242 32.099 7.587 30.083 6.93 28.066 C4.271 19.824 2.036 11.606 0.25 3.125 C-2.72 3.125 -5.69 3.125 -8.75 3.125 C-9.08 4.775 -9.41 6.425 -9.75 8.125 C-11.75 4.375 -11.75 4.375 -11.75 2.125 C-8.008 -0.325 -4.308 -0.106 0 0 Z " fill="#949AB4" transform="translate(316.75,628.875)"/>
<path d="M0 0 C2.256 6.424 4.093 12.882 5.688 19.5 C5.912 20.386 6.137 21.271 6.369 22.184 C7.927 28.633 9.345 35.198 7.074 41.617 C6.617 42.362 6.159 43.107 5.688 43.875 C5.14 44.794 4.592 45.713 4.027 46.66 C3.358 47.762 2.689 48.864 2 50 C1.163 51.475 0.332 52.953 -0.496 54.434 C-4.88 62.232 -9.389 69.882 -14.562 77.188 C-14.98 77.782 -15.397 78.376 -15.827 78.988 C-16.83 80.367 -17.908 81.69 -19 83 C-19.66 83 -20.32 83 -21 83 C-20.799 72.964 -19.046 63.426 -17.086 53.612 C-15.115 43.726 -13.377 33.81 -11.7 23.871 C-10.823 18.69 -9.94 13.51 -8.98 8.344 C-8.839 7.572 -8.697 6.801 -8.552 6.006 C-8 4 -8 4 -6 1 C-3.889 0.274 -2.23 0 0 0 Z " fill="#B4BAD2" transform="translate(301,636)"/>
<path d="M0 0 C7.009 6.934 9.013 19.868 9.098 29.305 C9.091 30.828 9.079 32.352 9.062 33.875 C9.058 34.659 9.053 35.442 9.049 36.25 C9.037 38.167 9.019 40.083 9 42 C6.128 42.843 3.253 43.675 0.375 44.5 C-0.433 44.738 -1.241 44.977 -2.074 45.223 C-6.504 46.483 -10.343 47.301 -15 47 C-15.04 46.3 -15.079 45.601 -15.12 44.88 C-15.313 41.648 -15.531 38.418 -15.75 35.188 C-15.781 34.637 -15.781 34.637 -15.938 31.854 C-16.524 23.575 -18.209 16.246 -22.128 8.88 C-23 7 -23 7 -23 4 C-20.108 3.132 -17.212 2.28 -14.312 1.438 C-13.496 1.191 -12.679 0.944 -11.838 0.689 C-3.865 -1.602 -3.865 -1.602 0 0 Z " fill="#7485BD" transform="translate(351,558)"/>
<path d="M0 0 C0.306 0.562 0.611 1.124 0.926 1.703 C1.938 3.563 2.954 5.421 3.973 7.277 C5.501 10.071 7.001 12.879 8.496 15.691 C16.36 30.378 25.254 43.252 36 56 C36.902 57.111 37.803 58.223 38.703 59.336 C46.001 68.245 54.011 75.812 63 83 C63.607 83.486 64.214 83.972 64.84 84.473 C75.718 93.058 87.916 101.216 101 106 C101 104.02 101 102.04 101 100 C101.33 100 101.66 100 102 100 C102.33 102.805 102.33 102.805 104 117 C103.67 116.01 103.34 115.02 103 114 C102.185 113.927 101.371 113.853 100.531 113.777 C96.006 112.781 92.502 110.845 88.5 108.562 C87.71 108.117 86.921 107.672 86.107 107.213 C78.694 102.958 71.793 98.176 65 93 C64.121 92.334 63.242 91.667 62.336 90.98 C43.456 76.266 27.581 58.835 13.727 39.412 C12.042 37.059 10.335 34.723 8.621 32.391 C-6.129 12.159 -6.129 12.159 -5 2 C-6.65 2 -8.3 2 -10 2 C-10 1.67 -10 1.34 -10 1 C-2.25 0 -2.25 0 0 0 Z " fill="#9399B4" transform="translate(405,621)"/>
<path d="M0 0 C4.379 0.52 8.688 1.057 13 2 C12.551 8.169 10.499 12.49 7.438 17.812 C6.988 18.606 6.538 19.4 6.075 20.218 C2.563 26.294 -1.349 31.738 -6 37 C-6.526 37.668 -7.052 38.335 -7.594 39.023 C-15.168 48.417 -26.025 56.082 -37 61 C-37.66 61 -38.32 61 -39 61 C-39.911 47.594 -39.911 47.594 -37.875 44.031 C-36.375 42.812 -36.375 42.812 -33 41 C-17.909 31.397 -5.703 17.109 0 0 Z " fill="#7485BD" transform="translate(466,254)"/>
<path d="M0 0 C6.086 -0.144 11.827 0.392 17.844 1.277 C18.771 1.408 19.698 1.539 20.654 1.674 C24.582 2.228 28.508 2.794 32.434 3.361 C43.324 4.926 54.098 6.323 65.096 6.791 C68 7 68 7 70 8 C69.859 9.625 69.712 11.25 69.562 12.875 C69.522 13.327 69.522 13.327 69.316 15.617 C69 18 69 18 68 20 C40.048 19.463 40.048 19.463 26.902 16.758 C21.89 15.785 16.871 15.229 11.792 14.735 C7.305 14.267 3.285 13.341 -1 12 C-1.027 10.375 -1.046 8.75 -1.062 7.125 C-1.074 6.22 -1.086 5.315 -1.098 4.383 C-1 2 -1 2 0 0 Z " fill="#7484BC" transform="translate(489,395)"/>
<path d="M0 0 C2.501 0.115 5 0.242 7.5 0.375 C8.196 0.406 8.892 0.437 9.609 0.469 C9.957 0.488 9.957 0.488 11.719 0.586 C12.347 0.617 12.976 0.649 13.623 0.681 C16.412 1.055 19.067 1.789 21.788 2.491 C25.617 3.372 29.492 3.799 33.391 4.254 C34.258 4.36 35.125 4.465 36.018 4.574 C38.761 4.909 41.506 5.236 44.25 5.562 C47.009 5.893 49.767 6.226 52.525 6.561 C54.234 6.769 55.944 6.974 57.653 7.176 C58.428 7.269 59.203 7.363 60.001 7.459 C60.679 7.54 61.356 7.62 62.054 7.703 C64.079 8.012 66.022 8.473 68 9 C68.074 12.87 68.047 16.274 67 20 C59.326 20.142 51.917 19.839 44.312 18.812 C43.324 18.684 42.336 18.556 41.318 18.425 C26.848 16.508 12.423 14.24 -2 12 C-2.086 7.44 -2.008 4.142 0 0 Z " fill="#B2B8D0" transform="translate(486,416)"/>
<path d="M0 0 C1.039 2.3 1.998 4.597 2.938 6.938 C15.926 37.774 39.241 62.288 68 79 C68.937 79.37 69.874 79.74 70.84 80.121 C73 81 73 81 74 83 C74.04 85 74.043 87 74 89 C67.559 87.194 62.472 84.722 57.062 80.812 C56.713 80.565 56.713 80.565 54.947 79.311 C52.955 77.887 50.976 76.446 49 75 C48.135 74.384 47.27 73.768 46.379 73.133 C31.787 62.158 19.644 48.268 9.489 33.199 C7.985 30.978 6.447 28.784 4.898 26.594 C3.911 25.188 2.924 23.782 1.938 22.375 C1.496 21.748 1.055 21.122 0.6 20.476 C-7.738 8.382 -7.738 8.382 -7 1 C-7.66 0.67 -8.32 0.34 -9 0 C-2.25 -1.125 -2.25 -1.125 0 0 Z " fill="#9399B4" transform="translate(430,618)"/>
<path d="M0 0 C-0.606 3.398 -1.458 6.48 -2.707 9.695 C-3.044 10.571 -3.382 11.447 -3.729 12.349 C-4.087 13.265 -4.444 14.181 -4.812 15.125 C-7.015 20.806 -9.19 26.471 -11.125 32.25 C-12.372 35.808 -13.948 38.472 -16.188 41.5 C-19.303 45.818 -19.708 49.462 -19.797 54.715 C-20 57 -20 57 -22 59 C-24 58.938 -24 58.938 -26 58 C-31.26 47.758 -28.207 31.18 -24.965 20.633 C-21.393 11.423 -17.028 5.442 -8.191 0.867 C-5.366 -0.251 -3.001 -0.385 0 0 Z " fill="#B3B9D1" transform="translate(100,347)"/>
<path d="M0 0 C4.799 0.929 9.118 1.966 13.594 3.938 C19.162 6.211 24.708 7.286 30.625 8.25 C31.127 8.336 31.127 8.336 33.668 8.773 C36.11 9.192 38.555 9.597 41 10 C41 15.28 41 20.56 41 26 C26.949 26.463 13.438 23.933 0.645 17.887 C-1 16 -1 16 -1.172 12.207 C-1.052 10.74 -0.911 9.275 -0.75 7.812 C-0.684 7.063 -0.619 6.313 -0.551 5.541 C-0.386 3.692 -0.195 1.846 0 0 Z " fill="#F0DBAB" transform="translate(316,321)"/>
<path d="M0 0 C8.462 -0.302 16.637 0.851 25 2 C25.999 5.157 26.157 6.617 24.883 9.727 C18.283 20.61 10.029 33.056 -1 40 C-1.66 40 -2.32 40 -3 40 C-3.2 30.083 -3.12 20.309 -2.062 10.438 C-1.976 9.623 -1.889 8.809 -1.799 7.969 C-1.142 2.285 -1.142 2.285 0 0 Z " fill="#B3B9D1" transform="translate(432,248)"/>
<path d="M0 0 C0.506 5.263 -0.099 8.699 -2.246 13.547 C-4.863 19.623 -7.161 25.767 -9.375 32 C-9.761 33.079 -10.148 34.159 -10.546 35.271 C-12.669 41.212 -14.757 47.164 -16.821 53.125 C-19.551 61.003 -22.429 68.779 -25.578 76.5 C-27.8 81.969 -29.898 87.484 -32 93 C-34.31 93 -36.62 93 -39 93 C-38.523 85.493 -36.01 79.139 -33.25 72.188 C-32.819 71.076 -32.389 69.964 -31.945 68.818 C-29.885 63.546 -27.736 58.345 -25.359 53.207 C-23.282 48.713 -21.562 44.194 -20 39.5 C-18.055 33.815 -15.885 28.394 -13.289 22.969 C-11.278 18.336 -9.704 13.549 -8.143 8.748 C-5.205 0 -5.205 0 0 0 Z " fill="#EED9AA" transform="translate(134,292)"/>
<path d="M0 0 C5.759 -0.225 10.488 0.459 16 2.188 C25.395 4.971 34.903 6.954 44.504 8.887 C45.428 9.074 46.353 9.262 47.305 9.456 C49.083 9.815 50.863 10.166 52.644 10.509 C53.048 10.591 53.048 10.591 55.09 11.004 C55.799 11.143 56.508 11.281 57.238 11.424 C59 12 59 12 61 14.25 C62.06 17.165 62.527 19.942 63 23 C54.031 22.574 45.687 21.239 37 19 C32.227 17.778 27.445 16.64 22.637 15.562 C21.503 15.307 20.369 15.052 19.201 14.789 C16.84 14.259 14.478 13.733 12.115 13.211 C11.552 13.083 11.552 13.083 8.699 12.438 C7.677 12.209 6.654 11.981 5.6 11.746 C3 11 3 11 0 9 C-0.293 6.836 -0.293 6.836 -0.188 4.375 C-0.16 3.558 -0.133 2.74 -0.105 1.898 C-0.088 1.585 -0.088 1.585 0 0 Z " fill="#B0B6CF" transform="translate(205,402)"/>
<path d="M0 0 C4.256 0.646 7.728 2.138 11.625 3.938 C17.676 6.637 23.432 8.194 30 9 C36.936 9.936 36.936 9.936 38 11 C38.073 13.353 38.084 15.708 38.062 18.062 C38.053 19.353 38.044 20.643 38.035 21.973 C38.024 22.972 38.012 23.971 38 25 C24.619 25.432 10.317 22.369 -1 15 C-1.103 9.874 -1.036 5.05 0 0 Z " fill="#7485BD" transform="translate(320,297)"/>
<path d="M0 0 C3.227 -0.078 3.227 -0.078 7 1 C9.062 3.824 10.152 6.993 11.375 10.25 C16.797 23.406 24.139 33.697 34 44 C34.657 44.721 35.315 45.441 35.992 46.184 C40.801 51.292 45.869 54.594 52 58 C52 53.05 52 48.1 52 43 C52.33 43 52.66 43 53 43 C53 50.26 53 57.52 53 65 C38.817 62.163 24.242 45.286 16 33.875 C14.969 32.269 13.971 30.643 13 29 C12.337 27.9 11.675 26.801 10.992 25.668 C0 7.111 0 7.111 0 0 Z " fill="#9399B4" transform="translate(448,613)"/>
<path d="M0 0 C5.086 -0.182 9.288 0.408 14.188 1.75 C18.884 3.018 23.554 4.137 28.348 4.98 C29.245 5.141 30.143 5.302 31.068 5.468 C32.825 5.776 34.585 6.067 36.348 6.341 C40.394 7.062 42.465 7.489 45.5 10.391 C47.374 13.651 48.143 16.357 49 20 C43.435 20.163 38.484 19.681 33.062 18.355 C32.338 18.185 31.614 18.015 30.867 17.839 C29.347 17.479 27.828 17.115 26.31 16.747 C24.008 16.19 21.704 15.647 19.398 15.107 C17.911 14.754 16.424 14.399 14.938 14.043 C14.26 13.883 13.583 13.724 12.885 13.56 C8.096 12.389 3.591 10.798 -1 9 C-0.67 6.03 -0.34 3.06 0 0 Z " fill="#7384BC" transform="translate(210,384)"/>
<path d="M0 0 C3.585 1.327 6.657 2.944 9.875 5 C16.154 8.812 21.934 10.152 29.18 10.754 C31 11 31 11 32 12 C32.073 14.186 32.084 16.375 32.062 18.562 C32.053 19.76 32.044 20.958 32.035 22.191 C32.024 23.118 32.012 24.045 32 25 C20.541 26.213 8.291 21.858 -1.289 15.668 C-3.297 13.71 -3.675 12.775 -3.812 10 C-3.332 6.274 -1.932 3.221 0 0 Z " fill="#B0B6CE" transform="translate(327,274)"/>
<path d="M0 0 C15.84 0 31.68 0 48 0 C48 3.3 48 6.6 48 10 C41.807 10.025 35.614 10.043 29.421 10.055 C27.314 10.06 25.207 10.067 23.101 10.075 C20.072 10.088 17.044 10.093 14.016 10.098 C13.545 10.1 13.545 10.1 11.162 10.113 C10.281 10.113 9.4 10.113 8.493 10.114 C7.72 10.116 6.948 10.118 6.151 10.12 C4 10 4 10 0 9 C0 6.03 0 3.06 0 0 Z " fill="#B3B9D1" transform="translate(367,345)"/>
<path d="M0 0 C2.318 1.608 4.173 2.902 6 5 C6.36 10.394 3.187 14.857 0 19 C-5.885 25.56 -14.876 30.479 -23.5 32.188 C-27 32 -27 32 -29.438 29.938 C-31.073 26.863 -31.512 24.418 -32 21 C-31.178 20.853 -30.355 20.706 -29.508 20.555 C-16.669 17.975 -8.977 13.37 -1.688 2.625 C-1.131 1.759 -0.574 0.892 0 0 Z " fill="#B1B7CF" transform="translate(160,435)"/>
<path d="M0 0 C1.98 0.66 3.96 1.32 6 2 C5.408 6.117 4.487 9.829 3.074 13.738 C2.689 14.806 2.305 15.874 1.908 16.975 C1.505 18.076 1.103 19.178 0.688 20.312 C0.296 21.402 -0.095 22.492 -0.498 23.615 C-3.728 32.522 -7.154 40.983 -12.125 49.062 C-12.467 49.625 -12.467 49.625 -14.195 52.473 C-14.791 53.307 -15.386 54.141 -16 55 C-16.66 55 -17.32 55 -18 55 C-18.621 46.546 -17.124 40.303 -13.812 32.562 C-13.4 31.556 -12.987 30.55 -12.562 29.513 C-11.391 26.668 -10.198 23.834 -9 21 C-8.474 19.721 -7.95 18.441 -7.43 17.16 C-5.068 11.389 -2.568 5.682 0 0 Z " fill="#ECD7A9" transform="translate(85,409)"/>
<path d="M0 0 C4.375 -0.029 8.75 -0.047 13.125 -0.062 C14.363 -0.071 15.6 -0.079 16.875 -0.088 C18.074 -0.091 19.273 -0.094 20.508 -0.098 C21.608 -0.103 22.707 -0.108 23.84 -0.114 C26.976 -0.001 29.921 0.414 33 1 C33 3.97 33 6.94 33 10 C22.11 10 11.22 10 0 10 C0 6.7 0 3.4 0 0 Z " fill="#AFB5CD" transform="translate(272,341)"/>
<path d="M0 0 C0.481 6.332 -1.194 11.084 -3.5 16.938 C-3.834 17.812 -4.168 18.687 -4.512 19.588 C-5.331 21.729 -6.16 23.866 -7 26 C-7.66 26 -8.32 26 -9 26 C-11.486 18.198 -13.57 11.264 -13 3 C-4.571 -0.429 -4.571 -0.429 0 0 Z " fill="#EBD6A8" transform="translate(278,262)"/>
<path d="M0 0 C6.92 -0.883 10.594 1.881 16 6 C13.303 13.289 7.901 17.661 1 21 C-2 21.312 -2 21.312 -4 21 C-3 18 -3 18 -0.438 15.75 C2 13 2 13 2.438 9.562 C2.015 6.121 1.258 3.223 0 0 Z " fill="#FFFFFF" transform="translate(335,97)"/>
<path d="M0 0 C0.66 0 1.32 0 2 0 C2.007 0.323 2.007 0.323 2.044 1.956 C2.119 4.888 2.215 7.819 2.312 10.75 C2.335 11.766 2.358 12.782 2.381 13.828 C2.416 14.808 2.452 15.788 2.488 16.797 C2.514 17.698 2.541 18.598 2.568 19.526 C3.072 22.413 4.172 23.759 6 26 C6 26.66 6 27.32 6 28 C7.98 28.66 9.96 29.32 12 30 C11.835 30.825 11.835 30.825 11 35 C10.34 35.165 10.34 35.165 7 36 C0.544 29.398 -3.106 22.181 -3.438 12.812 C-3.248 8.067 -1.92 4.32 0 0 Z " fill="#ACB2CB" transform="translate(63,383)"/>
<path d="M0 0 C4.29 0 8.58 0 13 0 C13 3.3 13 6.6 13 10 C8.71 10 4.42 10 0 10 C0 6.7 0 3.4 0 0 Z " fill="#B4BAD2" transform="translate(581,342)"/>
<path d="M0 0 C-0.33 0.33 -0.66 0.66 -1 1 C4.28 1.33 9.56 1.66 15 2 C12.535 4.465 11.107 4.26 7.736 4.273 C7.06 4.266 6.384 4.258 5.688 4.25 C4.371 4.255 3.055 4.26 1.699 4.266 C-1.702 4.021 -3.964 3.48 -7 2 C-7 1.34 -7 0.68 -7 0 C-3.867 -1.044 -3.01 -0.934 0 0 Z " fill="#A2A8C1" transform="translate(256,637)"/>
<path d="M0 0 C0.66 0.33 1.32 0.66 2 1 C-4.27 7.27 -10.54 13.54 -17 20 C-17.66 19.67 -18.32 19.34 -19 19 C-16.963 16.766 -14.921 14.538 -12.875 12.312 C-12.305 11.687 -11.735 11.061 -11.148 10.416 C-7.642 6.611 -4.051 3.22 0 0 Z " fill="#50546C" transform="translate(298,78)"/>
<path d="M0 0 C0.66 0 1.32 0 2 0 C2 6.27 2 12.54 2 19 C1.67 19 1.34 19 1 19 C0.67 14.71 0.34 10.42 0 6 C-0.66 6.66 -1.32 7.32 -2 8 C-1.125 2.25 -1.125 2.25 0 0 Z " fill="#A2A8C0" transform="translate(63,383)"/>
<path d="M0 0 C0.66 0.33 1.32 0.66 2 1 C0.214 2.839 -1.578 4.672 -3.375 6.5 C-3.883 7.025 -4.391 7.549 -4.914 8.09 C-6.238 9.432 -7.616 10.72 -9 12 C-9.66 12 -10.32 12 -11 12 C-9.497 8.332 -7.363 6.311 -4.375 3.75 C-3.966 3.397 -3.966 3.397 -1.898 1.609 C-1.272 1.078 -0.645 0.547 0 0 Z " fill="#4E526B" transform="translate(40,484)"/>
<path d="M0 0 C0.66 0.33 1.32 0.66 2 1 C-1.3 4.3 -4.6 7.6 -8 11 C-8.66 10.67 -9.32 10.34 -10 10 C-7.029 6.001 -3.871 3.079 0 0 Z " fill="#474C66" transform="translate(330,45)"/>
<path d="M0 0 C0.33 0.99 0.66 1.98 1 3 C0.67 3.33 0.34 3.66 0 4 C0.66 4.66 1.32 5.32 2 6 C-0.31 6.33 -2.62 6.66 -5 7 C-3.888 3.665 -2.526 2.363 0 0 Z " fill="#C9CAD2" transform="translate(336,111)"/>
<path d="M0 0 C0.99 0 1.98 0 3 0 C3 2.64 3 5.28 3 8 C2.34 6.68 1.68 5.36 1 4 C-1 4 -1 4 -3 5 C-1.125 1.125 -1.125 1.125 0 0 Z " fill="#C8B898" transform="translate(131,292)"/>
<path d="M0 0 C0 0.99 0 1.98 0 3 C-0.99 3.33 -1.98 3.66 -3 4 C-3 6.31 -3 8.62 -3 11 C-3.33 11 -3.66 11 -4 11 C-4.352 5.627 -4.352 5.627 -4 3 C-2 1 -2 1 0 0 Z " fill="#5B5964" transform="translate(223,571)"/></g>
  <rect x="69" y="59.0" width="395.49633251833745" height="6" fill="#FFFFFF"/>
  <rect x="69" y="575.0" width="395.49633251833745" height="6" fill="#FFFFFF"/>
  <rect x="69" y="59.0" width="6" height="522" fill="#FFFFFF"/>
  <rect x="458.49633251833745" y="59.0" width="6" height="522" fill="#FFFFFF"/>
  <g transform="translate(556.7481662591688,206.26075619295958) scale(0.7692307692307693)"><path d="M0 0 C240.24 0 480.48 0 728 0 C728 63.69 728 127.38 728 193 C487.76 193 247.52 193 0 193 C0 129.31 0 65.62 0 0 Z " fill="#FFFFFF" transform="translate(0,0)"/>
<path d="M0 0 C0.4 -0.003 0.4 -0.003 2.422 -0.017 C4.113 -0.027 5.803 -0.033 7.493 -0.037 C10.028 -0.047 12.561 -0.078 15.096 -0.109 C31.686 -0.218 50.366 1.194 62.945 13.328 C72.828 24.334 71.953 37.51 71.965 51.512 C71.971 53.287 71.978 55.063 71.985 56.838 C71.997 60.545 72.001 64.253 72 67.96 C71.999 72.685 72.027 77.41 72.061 82.135 C72.083 85.797 72.087 89.46 72.086 93.122 C72.089 94.863 72.097 96.604 72.113 98.345 C72.219 111.404 71.425 122.382 61.895 132.266 C48.413 143.795 28.122 144.587 11.316 144.516 C10.977 144.515 10.977 144.515 9.257 144.51 C-8.879 144.428 -26.597 142.793 -40.305 129.613 C-43.293 126.128 -45.042 122.574 -46.371 118.203 C-46.546 117.666 -46.72 117.129 -46.9 116.576 C-47.585 113.128 -47.527 109.698 -47.532 106.197 C-47.537 105.393 -47.542 104.589 -47.547 103.761 C-47.562 101.104 -47.569 98.446 -47.574 95.789 C-47.58 93.935 -47.586 92.082 -47.591 90.228 C-47.602 86.339 -47.608 82.451 -47.611 78.562 C-47.617 73.599 -47.641 68.637 -47.669 63.674 C-47.688 59.842 -47.693 56.011 -47.695 52.179 C-47.698 50.351 -47.706 48.523 -47.719 46.695 C-47.875 23.318 -47.875 23.318 -40.281 14.082 C-29.557 3.533 -14.608 0.082 0 0 Z " fill="#2E3250" transform="translate(356.37109375,24.796875)"/>
<path d="M0 0 C0.832 -0.003 1.664 -0.006 2.521 -0.009 C4.28 -0.011 6.038 -0.005 7.797 0.007 C10.49 0.023 13.182 0.007 15.875 -0.012 C17.583 -0.01 19.292 -0.006 21 0 C21.403 -0.003 21.403 -0.003 23.443 -0.018 C29.022 0.052 29.022 0.052 31.215 1.643 C32.849 3.875 32.864 5.12 32.841 7.87 C32.84 8.32 32.84 8.32 32.84 10.599 C32.824 11.568 32.809 12.537 32.793 13.535 C32.789 14.53 32.784 15.524 32.78 16.549 C32.763 19.728 32.726 22.907 32.688 26.086 C32.672 28.24 32.659 30.395 32.646 32.549 C32.616 37.832 32.557 43.115 32.5 48.398 C43.06 48.398 53.62 48.398 64.5 48.398 C64.477 45.101 64.454 41.804 64.43 38.406 C64.414 35.222 64.402 32.039 64.39 28.855 C64.38 26.638 64.366 24.42 64.349 22.203 C64.325 19.02 64.314 15.838 64.305 12.656 C64.294 11.66 64.284 10.665 64.273 9.638 C64.273 8.718 64.273 7.797 64.273 6.848 C64.269 6.035 64.264 5.223 64.259 4.385 C64.5 2.398 64.5 2.398 66.5 0.398 C69.417 0.198 72.238 0.119 75.156 0.133 C76.014 0.131 76.872 0.129 77.756 0.127 C79.572 0.126 81.388 0.129 83.204 0.138 C85.989 0.148 88.773 0.138 91.559 0.125 C93.32 0.126 95.082 0.129 96.844 0.133 C97.68 0.129 98.517 0.125 99.379 0.121 C105.27 0.169 105.27 0.169 107.5 2.398 C107.754 4.713 107.754 4.713 107.761 7.668 C107.768 8.785 107.775 9.903 107.782 11.054 C107.78 12.286 107.777 13.518 107.775 14.787 C107.78 16.08 107.785 17.372 107.79 18.704 C107.804 22.256 107.804 25.807 107.802 29.359 C107.801 32.321 107.805 35.284 107.81 38.246 C107.821 45.233 107.822 52.221 107.816 59.208 C107.81 66.422 107.822 73.636 107.843 80.85 C107.861 87.039 107.867 93.228 107.864 99.416 C107.862 103.115 107.864 106.813 107.878 110.511 C107.893 114.635 107.884 118.757 107.872 122.881 C107.88 124.11 107.888 125.34 107.895 126.607 C107.888 127.727 107.881 128.848 107.874 130.002 C107.874 130.977 107.875 131.953 107.875 132.958 C107.5 135.398 107.5 135.398 106.207 137.211 C103.233 139.279 99.715 138.824 96.219 138.797 C95.814 138.798 95.814 138.798 93.765 138.806 C92.053 138.808 90.342 138.802 88.63 138.79 C86.01 138.773 83.39 138.789 80.77 138.809 C79.107 138.807 77.444 138.803 75.781 138.797 C74.997 138.803 74.212 138.809 73.404 138.815 C67.98 138.745 67.98 138.745 65.791 137.165 C64.122 134.881 64.137 133.557 64.159 130.743 C64.16 129.803 64.16 128.862 64.16 127.893 C64.176 126.88 64.191 125.867 64.207 124.824 C64.211 123.785 64.216 122.746 64.22 121.676 C64.237 118.354 64.274 115.033 64.312 111.711 C64.328 109.46 64.341 107.21 64.354 104.959 C64.384 99.438 64.443 93.919 64.5 88.398 C53.94 88.398 43.38 88.398 32.5 88.398 C32.546 91.673 32.593 94.947 32.641 98.32 C32.672 101.491 32.696 104.661 32.72 107.832 C32.74 110.036 32.767 112.24 32.802 114.443 C32.85 117.611 32.873 120.778 32.891 123.945 C32.911 124.931 32.932 125.916 32.953 126.932 C32.955 133.603 32.955 133.603 30.999 137.019 C27.431 138.988 24.094 138.971 20.121 138.93 C19.313 138.934 18.504 138.937 17.671 138.941 C15.966 138.944 14.26 138.937 12.555 138.92 C9.943 138.898 7.333 138.92 4.721 138.945 C3.062 138.943 1.404 138.938 -0.254 138.93 C-1.035 138.938 -1.817 138.946 -2.621 138.954 C-8.034 138.86 -8.034 138.86 -10.206 136.706 C-11.773 133.911 -11.877 132.16 -11.881 128.964 C-11.889 127.861 -11.898 126.758 -11.907 125.621 C-11.901 124.415 -11.894 123.209 -11.888 121.967 C-11.893 120.693 -11.899 119.42 -11.904 118.108 C-11.918 114.618 -11.912 111.129 -11.903 107.639 C-11.895 103.987 -11.902 100.336 -11.907 96.685 C-11.913 90.554 -11.905 84.423 -11.891 78.292 C-11.875 71.202 -11.88 64.112 -11.897 57.021 C-11.91 50.935 -11.912 44.848 -11.904 38.761 C-11.9 35.126 -11.899 31.49 -11.909 27.854 C-11.919 23.803 -11.905 19.752 -11.888 15.701 C-11.894 14.493 -11.9 13.285 -11.907 12.041 C-11.898 10.94 -11.89 9.84 -11.881 8.706 C-11.88 7.747 -11.879 6.789 -11.878 5.802 C-11.5 3.398 -11.5 3.398 -10.213 1.591 C-7.19 -0.514 -3.556 -0.027 0 0 Z " fill="#2E3250" transform="translate(173.5,27.6015625)"/>
<path d="M0 0 C0.418 0.002 0.418 0.002 2.535 0.012 C3.393 0.01 4.251 0.008 5.135 0.006 C6.951 0.005 8.766 0.009 10.582 0.017 C13.367 0.028 16.152 0.017 18.937 0.004 C20.699 0.006 22.461 0.008 24.222 0.012 C25.059 0.008 25.895 0.004 26.757 0 C32.649 0.048 32.649 0.048 34.879 2.278 C35.119 4.265 35.119 4.265 35.106 6.728 C35.105 7.648 35.105 8.569 35.105 9.518 C35.095 10.514 35.084 11.51 35.074 12.536 C35.071 13.554 35.068 14.572 35.065 15.621 C35.054 18.882 35.029 22.142 35.004 25.403 C34.994 27.61 34.984 29.817 34.976 32.024 C34.956 37.442 34.917 42.86 34.879 48.278 C45.439 48.278 55.999 48.278 66.879 48.278 C66.844 45.064 66.809 41.851 66.773 38.54 C66.75 35.432 66.731 32.324 66.714 29.217 C66.699 27.054 66.678 24.892 66.652 22.73 C66.616 19.625 66.599 16.52 66.586 13.415 C66.57 12.446 66.555 11.477 66.539 10.479 C66.538 9.578 66.538 8.677 66.538 7.749 C66.535 7.353 66.535 7.353 66.518 5.347 C66.978 2.709 67.726 1.841 69.879 0.278 C72.785 -0.02 75.472 -0.142 78.379 -0.121 C79.211 -0.123 80.043 -0.126 80.9 -0.129 C82.658 -0.131 84.417 -0.126 86.175 -0.113 C88.869 -0.097 91.56 -0.113 94.254 -0.132 C95.962 -0.13 97.67 -0.126 99.379 -0.121 C100.185 -0.127 100.991 -0.133 101.822 -0.139 C107.381 -0.069 107.381 -0.069 109.591 1.47 C111.344 3.932 111.259 5.574 111.266 8.585 C111.276 9.686 111.286 10.786 111.296 11.92 C111.292 13.128 111.287 14.336 111.283 15.58 C111.289 16.852 111.296 18.124 111.303 19.434 C111.321 22.924 111.32 26.413 111.314 29.903 C111.311 32.816 111.317 35.728 111.323 38.641 C111.338 45.512 111.336 52.383 111.325 59.254 C111.313 66.344 111.327 73.433 111.354 80.523 C111.376 86.609 111.383 92.694 111.377 98.78 C111.374 102.416 111.376 106.051 111.393 109.686 C111.411 113.74 111.397 117.792 111.38 121.846 C111.39 123.052 111.4 124.258 111.41 125.5 C111.405 126.052 111.405 126.052 111.38 128.844 C111.38 129.323 111.38 129.323 111.379 131.748 C110.724 135.058 109.529 136.244 106.879 138.278 C103.957 138.676 101.419 138.839 98.5 138.809 C97.691 138.813 96.883 138.817 96.05 138.821 C94.344 138.823 92.639 138.816 90.933 138.799 C88.321 138.778 85.712 138.799 83.099 138.825 C81.441 138.822 79.783 138.817 78.125 138.809 C77.343 138.817 76.562 138.825 75.757 138.834 C70.332 138.74 70.332 138.74 68.17 136.538 C66.7 133.966 66.514 132.541 66.538 129.601 C66.538 128.68 66.538 127.76 66.539 126.811 C66.554 125.826 66.57 124.84 66.586 123.825 C66.59 122.809 66.594 121.794 66.598 120.748 C66.615 117.508 66.653 114.268 66.691 111.028 C66.706 108.83 66.72 106.632 66.732 104.434 C66.763 99.048 66.821 93.664 66.879 88.278 C56.319 88.278 45.759 88.278 34.879 88.278 C34.925 91.636 34.971 94.994 35.019 98.454 C35.05 101.7 35.075 104.947 35.098 108.194 C35.118 110.453 35.146 112.712 35.18 114.971 C35.229 118.215 35.251 121.459 35.269 124.704 C35.29 125.716 35.31 126.729 35.332 127.772 C35.332 128.713 35.332 129.654 35.333 130.623 C35.342 131.451 35.35 132.279 35.36 133.133 C34.879 135.278 34.879 135.278 33.082 137.045 C29.755 138.907 26.432 138.706 22.718 138.676 C22.325 138.678 22.325 138.678 20.336 138.685 C18.677 138.687 17.019 138.682 15.361 138.669 C12.821 138.653 10.283 138.669 7.744 138.688 C6.131 138.686 4.519 138.682 2.906 138.676 C2.146 138.682 1.387 138.688 0.605 138.695 C-4.624 138.625 -4.624 138.625 -6.822 137.091 C-8.605 134.604 -8.496 132.929 -8.496 129.881 C-8.503 128.761 -8.51 127.641 -8.517 126.486 C-8.509 125.257 -8.502 124.027 -8.494 122.76 C-8.497 121.466 -8.501 120.171 -8.505 118.837 C-8.514 115.286 -8.505 111.735 -8.492 108.183 C-8.48 104.47 -8.484 100.756 -8.486 97.043 C-8.487 90.808 -8.476 84.573 -8.458 78.338 C-8.436 71.123 -8.433 63.908 -8.439 56.694 C-8.445 49.759 -8.439 42.825 -8.428 35.891 C-8.423 32.937 -8.423 29.983 -8.425 27.029 C-8.427 22.908 -8.412 18.787 -8.396 14.666 C-8.399 13.435 -8.401 12.203 -8.404 10.934 C-8.397 9.816 -8.389 8.699 -8.382 7.547 C-8.38 6.572 -8.378 5.597 -8.376 4.593 C-7.811 -0.551 -4.357 0.035 0 0 Z " fill="#2E3250" transform="translate(593.1214599609375,27.72210693359375)"/>
<path d="M0 0 C0.924 -0.007 1.848 -0.014 2.8 -0.021 C3.308 -0.02 3.308 -0.02 5.881 -0.014 C6.949 -0.019 8.017 -0.024 9.118 -0.029 C12.664 -0.043 16.21 -0.042 19.756 -0.04 C22.212 -0.044 24.668 -0.048 27.125 -0.053 C32.279 -0.061 37.433 -0.06 42.587 -0.055 C49.203 -0.049 55.818 -0.066 62.434 -0.089 C67.508 -0.104 72.583 -0.105 77.657 -0.102 C80.097 -0.102 82.536 -0.108 84.976 -0.118 C88.383 -0.13 91.79 -0.123 95.197 -0.112 C95.704 -0.115 95.704 -0.115 98.272 -0.135 C98.735 -0.131 98.735 -0.131 101.08 -0.114 C101.483 -0.114 101.483 -0.114 103.522 -0.114 C106.143 0.358 107.025 1.145 108.604 3.261 C109.008 6.292 109.008 6.292 109.037 9.976 C109.042 10.628 109.048 11.28 109.053 11.952 C109.06 13.329 109.058 14.707 109.05 16.085 C109.041 18.188 109.07 20.289 109.102 22.392 C109.103 23.732 109.103 25.073 109.1 26.413 C109.102 27.63 109.103 28.847 109.105 30.1 C108.49 33.977 107.708 34.914 104.604 37.261 C101.304 37.715 101.304 37.715 97.432 37.651 C97.091 37.648 97.091 37.648 95.364 37.634 C93.193 37.612 91.024 37.562 88.854 37.511 C87.378 37.491 85.903 37.472 84.428 37.456 C80.819 37.412 77.212 37.343 73.604 37.261 C73.613 38.467 73.621 39.673 73.631 40.916 C73.712 52.276 73.772 63.635 73.811 74.995 C73.832 80.836 73.86 86.676 73.905 92.516 C73.949 98.151 73.973 103.785 73.983 109.42 C73.991 111.571 74.005 113.722 74.027 115.874 C74.056 118.884 74.06 121.892 74.058 124.902 C74.072 125.795 74.087 126.688 74.101 127.607 C74.061 133.606 74.061 133.606 71.819 136.814 C68.403 139.045 64.95 138.812 61.006 138.757 C60.175 138.758 59.345 138.76 58.489 138.761 C56.736 138.76 54.984 138.748 53.231 138.727 C50.547 138.698 47.864 138.707 45.18 138.72 C43.476 138.713 41.772 138.705 40.068 138.694 C39.265 138.697 38.462 138.7 37.635 138.703 C32.073 138.609 32.073 138.609 29.891 136.991 C28.315 134.872 28.233 133.8 28.243 131.179 C28.239 130.351 28.235 129.522 28.23 128.668 C28.241 127.763 28.252 126.857 28.263 125.924 C28.263 124.968 28.262 124.011 28.262 123.026 C28.264 119.861 28.287 116.696 28.311 113.53 C28.316 111.337 28.321 109.144 28.324 106.952 C28.335 101.176 28.364 95.401 28.398 89.626 C28.428 83.734 28.442 77.842 28.457 71.95 C28.489 60.387 28.541 48.824 28.604 37.261 C27.686 37.276 26.767 37.292 25.821 37.308 C22.407 37.36 18.993 37.397 15.579 37.425 C14.102 37.441 12.626 37.461 11.15 37.487 C9.025 37.524 6.901 37.54 4.776 37.554 C4.137 37.562 4.137 37.562 0.903 37.601 C-2.593 37.24 -4.008 36.803 -6.396 34.261 C-6.882 31.014 -6.882 31.014 -6.857 27.038 C-6.856 26.337 -6.855 25.635 -6.855 24.913 C-6.848 23.433 -6.833 21.952 -6.808 20.472 C-6.771 18.203 -6.767 15.935 -6.767 13.665 C-6.674 0.017 -6.674 0.017 0 0 Z " fill="#2F3250" transform="translate(454.39634704589844,27.739303588867188)"/>
<path d="M0 0 C1.974 -0.375 1.974 -0.375 4.441 -0.374 C4.908 -0.378 4.908 -0.378 7.271 -0.395 C7.785 -0.392 7.785 -0.392 10.385 -0.372 C11.464 -0.376 12.544 -0.38 13.657 -0.383 C17.24 -0.392 20.823 -0.378 24.406 -0.363 C26.887 -0.363 29.368 -0.363 31.849 -0.365 C37.722 -0.365 43.595 -0.35 49.468 -0.329 C55.486 -0.309 61.504 -0.314 67.522 -0.32 C72.646 -0.323 77.771 -0.316 82.896 -0.307 C85.362 -0.303 87.827 -0.302 90.293 -0.303 C93.734 -0.304 97.174 -0.291 100.615 -0.275 C101.129 -0.276 101.129 -0.276 103.729 -0.282 C104.663 -0.275 105.597 -0.268 106.559 -0.261 C106.966 -0.26 106.966 -0.26 109.026 -0.254 C111 0 111 0 113 2 C113.423 6.542 113.372 11.099 113.371 15.658 C113.375 17.926 113.411 20.192 113.449 22.459 C113.455 23.898 113.459 25.338 113.461 26.777 C113.469 28.09 113.477 29.402 113.486 30.754 C113 34 113 34 111.418 35.685 C108.105 37.487 105.588 37.339 101.828 37.293 C101.487 37.291 101.487 37.291 99.76 37.28 C97.59 37.263 95.42 37.226 93.25 37.188 C91.775 37.172 90.299 37.159 88.824 37.146 C85.216 37.113 81.608 37.062 78 37 C78.009 38.206 78.018 39.413 78.027 40.656 C78.108 52.015 78.168 63.375 78.207 74.734 C78.228 80.575 78.256 86.415 78.302 92.255 C78.345 97.89 78.369 103.524 78.38 109.159 C78.387 111.31 78.401 113.462 78.423 115.613 C78.452 118.623 78.456 121.632 78.454 124.642 C78.468 125.534 78.483 126.427 78.498 127.347 C78.458 133.346 78.458 133.346 76.215 136.553 C72.802 138.783 69.346 138.571 65.402 138.531 C64.572 138.535 63.741 138.539 62.885 138.543 C61.133 138.546 59.38 138.538 57.628 138.521 C54.943 138.5 52.261 138.521 49.576 138.547 C47.872 138.544 46.169 138.539 44.465 138.531 C43.662 138.539 42.859 138.547 42.031 138.556 C36.549 138.463 36.549 138.463 34.286 136.553 C32.318 132.647 32.607 128.955 32.659 124.642 C32.659 123.695 32.659 122.748 32.658 121.773 C32.66 118.645 32.684 115.518 32.707 112.391 C32.713 110.222 32.717 108.053 32.72 105.883 C32.731 100.175 32.761 94.468 32.794 88.76 C32.825 82.935 32.838 77.11 32.854 71.285 C32.886 59.857 32.937 48.428 33 37 C32.541 37.01 32.541 37.01 30.218 37.063 C26.803 37.132 23.39 37.182 19.975 37.22 C18.499 37.24 17.022 37.267 15.546 37.302 C13.421 37.35 11.297 37.373 9.172 37.391 C7.894 37.412 6.616 37.433 5.3 37.454 C2 37 2 37 -0.418 35.173 C-2.646 32.112 -2.486 29.91 -2.461 26.152 C-2.46 25.499 -2.459 24.846 -2.458 24.173 C-2.452 22.797 -2.436 21.421 -2.412 20.046 C-2.375 17.941 -2.371 15.838 -2.371 13.732 C-2.296 3.443 -2.296 3.443 0 0 Z " fill="#2E3250" transform="translate(27,28)"/>
<path d="M0 0 C0.699 -0.021 1.399 -0.041 2.119 -0.062 C6.919 -0.098 10.158 0.638 14.188 3.25 C17.109 6.388 17.568 8.523 17.592 12.765 C17.604 13.87 17.617 14.975 17.63 16.113 C17.627 17.302 17.624 18.49 17.621 19.715 C17.626 20.94 17.632 22.166 17.637 23.428 C17.643 26.02 17.642 28.611 17.634 31.203 C17.625 35.169 17.654 39.134 17.686 43.1 C17.687 45.617 17.687 48.135 17.684 50.652 C17.689 51.246 17.689 51.246 17.718 54.248 C17.648 62.469 17.648 62.469 15.297 66.457 C10.649 70.408 6.103 70.59 0.188 70.562 C-0.511 70.579 -1.21 70.595 -1.93 70.611 C-6.429 70.616 -9.271 70.051 -12.812 67.25 C-15.734 64.062 -16.196 61.928 -16.232 57.643 C-16.248 56.518 -16.264 55.393 -16.281 54.235 C-16.281 53.629 -16.281 53.629 -16.281 50.566 C-16.289 49.319 -16.296 48.071 -16.304 46.786 C-16.315 44.147 -16.319 41.509 -16.313 38.87 C-16.308 35.496 -16.338 32.123 -16.379 28.749 C-16.411 25.522 -16.406 22.294 -16.406 19.066 C-16.423 17.858 -16.439 16.65 -16.456 15.404 C-16.379 6.082 -16.379 6.082 -13.463 3.011 C-9.048 0.078 -5.134 0.037 0 0 Z " fill="#FFFFFF" transform="translate(367.8125,61.75)"/></g>
  <g transform="translate(566.7481662591688,372.72229465449806) scale(0.7627118644067796)"><path d="M0 0 C233.64 0 467.28 0 708 0 C708 26.4 708 52.8 708 80 C474.36 80 240.72 80 0 80 C0 53.6 0 27.2 0 0 Z " fill="#FFFFFF" transform="translate(0,0)"/>
<path d="M0 0 C3.591 0.588 4.335 0.782 6.438 3.562 C6.826 5.568 6.826 5.568 6.836 7.836 C6.84 8.661 6.844 9.486 6.848 10.336 C6.836 11.194 6.824 12.053 6.812 12.938 C6.824 13.788 6.836 14.639 6.848 15.516 C6.826 20.231 6.759 23.897 3.438 27.562 C0.638 28.232 -1.651 27.801 -4.562 27.562 C-7.272 22.906 -7.995 19.434 -8 14.062 C-8.019 12.794 -8.039 11.526 -8.059 10.219 C-7.307 4.68 -5.768 0.911 0 0 Z " fill="#9098B6" transform="translate(269.5625,27.4375)"/>
<path d="M0 0 C3.591 0.588 4.335 0.782 6.438 3.562 C6.826 5.568 6.826 5.568 6.836 7.836 C6.84 8.661 6.844 9.486 6.848 10.336 C6.836 11.194 6.824 12.053 6.812 12.938 C6.824 13.788 6.836 14.639 6.848 15.516 C6.826 20.231 6.759 23.897 3.438 27.562 C0.638 28.232 -1.651 27.801 -4.562 27.562 C-7.272 22.906 -7.995 19.434 -8 14.062 C-8.019 12.794 -8.039 11.526 -8.059 10.219 C-7.307 4.68 -5.768 0.911 0 0 Z " fill="#9098B6" transform="translate(54.5625,27.4375)"/>
<path d="M0 0 C3.5 0.438 3.5 0.438 5.375 1.75 C7.823 5.423 7.695 8.964 7.75 13.25 C7.763 13.851 7.763 13.851 7.828 16.895 C7.457 20.902 6.43 24.507 3.5 27.438 C0.125 27.75 0.125 27.75 -3.5 27.438 C-5.642 25.644 -6.401 24.156 -6.782 21.392 C-6.905 18.9 -6.909 16.432 -6.875 13.938 C-6.887 13.083 -6.898 12.228 -6.91 11.348 C-6.893 7.722 -6.855 5.135 -5.195 1.871 C-3.5 0.438 -3.5 0.438 0 0 Z " fill="#9299B7" transform="translate(574.5,27.5625)"/>
<path d="M0 0 C3.5 0.438 3.5 0.438 5.375 1.75 C7.823 5.423 7.695 8.964 7.75 13.25 C7.763 13.851 7.763 13.851 7.828 16.895 C7.457 20.902 6.43 24.507 3.5 27.438 C0.125 27.75 0.125 27.75 -3.5 27.438 C-5.642 25.644 -6.401 24.156 -6.782 21.392 C-6.905 18.9 -6.909 16.432 -6.875 13.938 C-6.887 13.083 -6.898 12.228 -6.91 11.348 C-6.893 7.722 -6.855 5.135 -5.195 1.871 C-3.5 0.438 -3.5 0.438 0 0 Z " fill="#9299B7" transform="translate(471.5,27.5625)"/>
<path d="M0 0 C1.65 0 3.3 0 5 0 C6.32 3.3 7.64 6.6 9 10 C9.33 6.7 9.66 3.4 10 0 C11.65 0 13.3 0 15 0 C15 8.91 15 17.82 15 27 C13.35 27 11.7 27 10 27 C8.68 23.37 7.36 19.74 6 16 C5.67 19.63 5.34 23.26 5 27 C3.35 27 1.7 27 0 27 C0 18.09 0 9.18 0 0 Z " fill="#989FBB" transform="translate(631,28)"/>
<path d="M0 0 C8 0 8 0 10.438 1.312 C14.113 5.282 13.26 10.745 13.227 15.82 C12.882 20.661 11.382 23.618 8 27 C5.36 27 2.72 27 0 27 C0 18.09 0 9.18 0 0 Z " fill="#969DBA" transform="translate(546,28)"/>
<path d="M0 0 C1.65 0 3.3 0 5 0 C5 3.3 5 6.6 5 10 C5.99 10 6.98 10 8 10 C8 6.7 8 3.4 8 0 C9.65 0 11.3 0 13 0 C13 8.91 13 17.82 13 27 C11.35 27 9.7 27 8 27 C8 23.04 8 19.08 8 15 C7.01 15 6.02 15 5 15 C5 18.96 5 22.92 5 27 C3.35 27 1.7 27 0 27 C0 18.09 0 9.18 0 0 Z " fill="#9AA1BD" transform="translate(150,28)"/>
<path d="M0 0 C1.65 0 3.3 0 5 0 C5 7.59 5 15.18 5 23 C6.32 23 7.64 23 9 23 C9 15.41 9 7.82 9 0 C10.65 0 12.3 0 14 0 C14 8.58 14 17.16 14 26 C11.673 27.163 10.153 27.199 7.562 27.25 C6.78 27.276 5.998 27.302 5.191 27.328 C2.391 26.909 1.698 26.245 0 24 C-0.341 21.456 -0.341 21.456 -0.293 18.457 C-0.283 17.384 -0.274 16.311 -0.264 15.205 C-0.239 14.086 -0.213 12.966 -0.188 11.812 C-0.181 11.247 -0.181 11.247 -0.146 8.385 C-0.111 5.589 -0.062 2.795 0 0 Z " fill="#979EBB" transform="translate(71,28)"/>
<path d="M0 0 C8.111 0 8.111 0 11 2 C12.894 5.788 12.185 10.077 11.375 14.125 C10.939 17.47 11.674 18.957 13 22 C13.125 24.813 13.125 24.813 13 27 C11.35 27 9.7 27 8 27 C7.879 26.362 7.758 25.724 7.633 25.066 C7.465 24.24 7.298 23.414 7.125 22.562 C7.044 22.151 7.044 22.151 6.633 20.066 C6.424 19.384 6.215 18.703 6 18 C5.34 17.67 4.68 17.34 4 17 C4 20.3 4 23.6 4 27 C2.68 27 1.36 27 0 27 C0 18.09 0 9.18 0 0 Z " fill="#9098B6" transform="translate(286,28)"/>
<path d="M0 0 C7 0 7 0 9.418 1.188 C11.499 3.571 11.447 4.874 11.312 8 C11.288 8.866 11.264 9.733 11.238 10.625 C11 13 11 13 10 16 C10.309 16.578 10.619 17.155 10.938 17.75 C12.41 20.868 12.131 23.6 12 27 C10.35 27 8.7 27 7 27 C6.34 24.03 5.68 21.06 5 18 C4.67 20.97 4.34 23.94 4 27 C2.68 27 1.36 27 0 27 C0 18.09 0 9.18 0 0 Z " fill="#8F97B5" transform="translate(95,28)"/>
<path d="M0 0 C1.32 0 2.64 0 4 0 C4 3.63 4 7.26 4 11 C5.32 11 6.64 11 8 11 C8 7.37 8 3.74 8 0 C9.32 0 10.64 0 12 0 C12 8.91 12 17.82 12 27 C10.68 27 9.36 27 8 27 C8 23.04 8 19.08 8 15 C6.68 15 5.36 15 4 15 C4 18.96 4 22.92 4 27 C2.68 27 1.36 27 0 27 C0 18.09 0 9.18 0 0 Z " fill="#8C94B4" transform="translate(511,28)"/>
<path d="M0 0 C1.32 0 2.64 0 4 0 C4 3.63 4 7.26 4 11 C5.32 11 6.64 11 8 11 C8 7.37 8 3.74 8 0 C9.32 0 10.64 0 12 0 C12 8.91 12 17.82 12 27 C10.68 27 9.36 27 8 27 C8 23.04 8 19.08 8 15 C6.68 15 5.36 15 4 15 C4 18.96 4 22.92 4 27 C2.68 27 1.36 27 0 27 C0 18.09 0 9.18 0 0 Z " fill="#8C94B4" transform="translate(443,28)"/>
<path d="M0 0 C0.33 1.32 0.66 2.64 1 4 C-1.31 4.33 -3.62 4.66 -6 5 C-6 10.94 -6 16.88 -6 23 C-5.01 23 -4.02 23 -3 23 C-3 20.03 -3 17.06 -3 14 C-3.66 14 -4.32 14 -5 14 C-5 13.01 -5 12.02 -5 11 C-3.02 11 -1.04 11 1 11 C1 16.28 1 21.56 1 27 C-7.405 27.487 -7.405 27.487 -9.773 25.547 C-11.612 21.729 -11.396 18.18 -11.312 14 C-11.316 13.193 -11.319 12.386 -11.322 11.555 C-11.285 7.467 -11.191 4.568 -9 1 C-6.043 -0.478 -3.258 -0.06 0 0 Z " fill="#8E95B5" transform="translate(319,28)"/>
<path d="M0 0 C3.3 0 6.6 0 10 0 C10 1.32 10 2.64 10 4 C8.35 4 6.7 4 5 4 C5 6.31 5 8.62 5 11 C6.32 11 7.64 11 9 11 C9 12.32 9 13.64 9 15 C7.68 15 6.36 15 5 15 C5 17.64 5 20.28 5 23 C6.65 23 8.3 23 10 23 C10 24.32 10 25.64 10 27 C6.7 27 3.4 27 0 27 C0 18.09 0 9.18 0 0 Z " fill="#969EBA" transform="translate(591,28)"/>
<path d="M0 0 C0 1.32 0 2.64 0 4 C-1.98 4 -3.96 4 -6 4 C-4.502 7.745 -3.168 10.764 -0.812 14.062 C1.276 17.447 1.594 19.096 1 23 C0 25.375 0 25.375 -2 27 C-4.755 27.337 -7.206 27.183 -10 27 C-10.33 25.35 -10.66 23.7 -11 22 C-9.02 22 -7.04 22 -5 22 C-4.757 19.074 -4.692 17.476 -6.312 14.973 C-6.869 14.342 -7.426 13.712 -8 13.062 C-10.185 10.325 -10.961 9.23 -11.562 5.688 C-11 3 -11 3 -10 1.125 C-6.747 -0.705 -3.686 -0.181 0 0 Z " fill="#9199B7" transform="translate(382,28)"/>
<path d="M0 0 C0 1.32 0 2.64 0 4 C-1.98 4 -3.96 4 -6 4 C-4.502 7.745 -3.168 10.764 -0.812 14.062 C1.276 17.447 1.594 19.096 1 23 C0 25.375 0 25.375 -2 27 C-4.755 27.337 -7.206 27.183 -10 27 C-10.33 25.35 -10.66 23.7 -11 22 C-9.02 22 -7.04 22 -5 22 C-4.757 19.074 -4.692 17.476 -6.312 14.973 C-6.869 14.342 -7.426 13.712 -8 13.062 C-10.185 10.325 -10.961 9.23 -11.562 5.688 C-11 3 -11 3 -10 1.125 C-6.747 -0.705 -3.686 -0.181 0 0 Z " fill="#9199B7" transform="translate(140,28)"/>
<path d="M0 0 C0.33 1.32 0.66 2.64 1 4 C-1.31 4 -3.62 4 -6 4 C-3.453 10.496 -3.453 10.496 -0.812 13.438 C1.845 17.195 1.513 19.454 1 24 C0 26 0 26 -2 27 C-4.719 27.231 -7.26 27.135 -10 27 C-10.33 25.68 -10.66 24.36 -11 23 C-9 22 -9 22 -5 22 C-4.641 17.755 -5.444 15.86 -8 12.5 C-10.543 9.157 -11.454 7.232 -11 3 C-8.632 -1.293 -4.308 -0.212 0 0 Z " fill="#9199B7" transform="translate(621,28)"/>
<path d="M0 0 C1.65 0 3.3 0 5 0 C5.66 1.98 6.32 3.96 7 6 C7.66 4.02 8.32 2.04 9 0 C10.32 0 11.64 0 13 0 C12.69 1.605 12.377 3.209 12.062 4.812 C11.888 5.706 11.714 6.599 11.535 7.52 C11 10 11 10 10 13 C9.774 15.393 9.592 17.789 9.438 20.188 C9.354 21.46 9.27 22.732 9.184 24.043 C9.123 25.019 9.062 25.995 9 27 C7.35 27 5.7 27 4 27 C3.963 26.022 3.925 25.043 3.887 24.035 C3.548 17.288 3.187 11.069 0.621 4.734 C0 3 0 3 0 0 Z " fill="#969DBA" transform="translate(25,28)"/>
<path d="M0 0 C3.3 0 6.6 0 10 0 C10 1.32 10 2.64 10 4 C8.02 4 6.04 4 4 4 C4 5.98 4 7.96 4 10 C5.65 10 7.3 10 9 10 C9 11.32 9 12.64 9 14 C7.35 14 5.7 14 4 14 C4 16.97 4 19.94 4 23 C5.65 23 7.3 23 9 23 C9 24.32 9 25.64 9 27 C6.03 27 3.06 27 0 27 C0 18.09 0 9.18 0 0 Z " fill="#9098B6" transform="translate(330,28)"/>
<path d="M0 0 C4.62 0 9.24 0 14 0 C14 1.32 14 2.64 14 4 C12.35 4 10.7 4 9 4 C9 11.59 9 19.18 9 27 C7.35 27 5.7 27 4 27 C4 19.41 4 11.82 4 4 C2.68 4 1.36 4 0 4 C0 2.68 0 1.36 0 0 Z " fill="#979EBB" transform="translate(488,28)"/>
<path d="M0 0 C3.3 0 6.6 0 10 0 C10 1.32 10 2.64 10 4 C8.02 4 6.04 4 4 4 C4 6.31 4 8.62 4 11 C5.65 11 7.3 11 9 11 C9 11.99 9 12.98 9 14 C7.35 14 5.7 14 4 14 C4 16.97 4 19.94 4 23 C5.98 23 7.96 23 10 23 C10 24.32 10 25.64 10 27 C6.7 27 3.4 27 0 27 C0 18.09 0 9.18 0 0 Z " fill="#8E96B5" transform="translate(173,28)"/>
<path d="M0 0 C1.65 0 3.3 0 5 0 C5 7.59 5 15.18 5 23 C6.65 23 8.3 23 10 23 C10 24.32 10 25.64 10 27 C6.7 27 3.4 27 0 27 C0 18.09 0 9.18 0 0 Z " fill="#989FBB" transform="translate(211,28)"/>
<path d="M0 0 C1.65 0 3.3 0 5 0 C5 7.59 5 15.18 5 23 C6.65 23 8.3 23 10 23 C10 24.32 10 25.64 10 27 C6.7 27 3.4 27 0 27 C0 18.09 0 9.18 0 0 Z " fill="#989FBB" transform="translate(192,28)"/>
<path d="M0 0 C3.3 0 6.6 0 10 0 C10 1.32 10 2.64 10 4 C8.02 4 6.04 4 4 4 C4 5.98 4 7.96 4 10 C5.65 10 7.3 10 9 10 C9 11.32 9 12.64 9 14 C7.35 14 5.7 14 4 14 C4 18.29 4 22.58 4 27 C2.68 27 1.36 27 0 27 C0 18.09 0 9.18 0 0 Z " fill="#9199B7" transform="translate(244,28)"/>
<path d="M0 0 C4.62 0 9.24 0 14 0 C14 1.32 14 2.64 14 4 C12.35 4 10.7 4 9 4 C9 11.59 9 19.18 9 27 C7.68 27 6.36 27 5 27 C5 19.41 5 11.82 5 4 C3.35 4 1.7 4 0 4 C0 2.68 0 1.36 0 0 Z " fill="#8C94B3" transform="translate(670,28)"/>
<path d="M0 0 C4.62 0 9.24 0 14 0 C14 1.32 14 2.64 14 4 C12.35 4 10.7 4 9 4 C9 11.59 9 19.18 9 27 C7.68 27 6.36 27 5 27 C5 19.41 5 11.82 5 4 C3.35 4 1.7 4 0 4 C0 2.68 0 1.36 0 0 Z " fill="#8E95B5" transform="translate(419,28)"/>
<path d="M0 0 C4.62 0 9.24 0 14 0 C14 1.32 14 2.64 14 4 C12.35 4 10.7 4 9 4 C9 11.59 9 19.18 9 27 C7.68 27 6.36 27 5 27 C5 19.41 5 11.82 5 4 C3.35 4 1.7 4 0 4 C0 2.68 0 1.36 0 0 Z " fill="#8C94B3" transform="translate(348,28)"/>
<path d="M0 0 C0.99 0.66 1.98 1.32 3 2 C3.328 5.152 3.328 5.152 3.25 8.938 C3.235 10.184 3.219 11.431 3.203 12.715 C3 16 3 16 2 19 C1.01 19 0.02 19 -1 19 C-2.517 15.966 -2.184 12.825 -2.188 9.5 C-2.2 8.81 -2.212 8.121 -2.225 7.41 C-2.23 5.605 -2.122 3.801 -2 2 C-1.34 1.34 -0.68 0.68 0 0 Z " fill="#FFFFFF" transform="translate(269,32)"/>
<path d="M0 0 C0.99 0.66 1.98 1.32 3 2 C3.328 5.152 3.328 5.152 3.25 8.938 C3.235 10.184 3.219 11.431 3.203 12.715 C3 16 3 16 2 19 C1.01 19 0.02 19 -1 19 C-2.517 15.966 -2.184 12.825 -2.188 9.5 C-2.2 8.81 -2.212 8.121 -2.225 7.41 C-2.23 5.605 -2.122 3.801 -2 2 C-1.34 1.34 -0.68 0.68 0 0 Z " fill="#FFFFFF" transform="translate(54,32)"/>
<path d="M0 0 C0.99 0.33 1.98 0.66 3 1 C3.027 3.625 3.047 6.25 3.062 8.875 C3.071 9.621 3.079 10.368 3.088 11.137 C3.113 16.773 3.113 16.773 2 19 C1.01 18.67 0.02 18.34 -1 18 C-1.027 15.187 -1.047 12.375 -1.062 9.562 C-1.071 8.76 -1.079 7.958 -1.088 7.131 C-1.097 5.087 -1.052 3.043 -1 1 C-0.67 0.67 -0.34 0.34 0 0 Z " fill="#FFFFFF" transform="translate(574,32)"/>
<path d="M0 0 C0.99 0.33 1.98 0.66 3 1 C3.027 3.625 3.047 6.25 3.062 8.875 C3.071 9.621 3.079 10.368 3.088 11.137 C3.113 16.773 3.113 16.773 2 19 C1.01 18.67 0.02 18.34 -1 18 C-1.027 15.187 -1.047 12.375 -1.062 9.562 C-1.071 8.76 -1.079 7.958 -1.088 7.131 C-1.097 5.087 -1.052 3.043 -1 1 C-0.67 0.67 -0.34 0.34 0 0 Z " fill="#FFFFFF" transform="translate(471,32)"/>
<path d="M0 0 C0.66 0 1.32 0 2 0 C3.41 2.819 3.17 5.233 3.188 8.375 C3.202 9.517 3.216 10.659 3.23 11.836 C3.012 14.839 2.571 16.479 1 19 C0.67 19 0.34 19 0 19 C0 12.73 0 6.46 0 0 Z " fill="#FFFFFF" transform="translate(551,32)"/>
<path d="M0 0 C0.33 0 0.66 0 1 0 C1.33 2.31 1.66 4.62 2 7 C2.66 7 3.32 7 4 7 C4 9.97 4 12.94 4 16 C3.01 16 2.02 16 1 16 C-0.502 12.997 -0.093 10.209 -0.062 6.875 C-0.053 5.594 -0.044 4.312 -0.035 2.992 C-0.024 2.005 -0.012 1.017 0 0 Z " fill="#FFFFFF" transform="translate(312,35)"/>
<path d="M0 0 C2.062 0.438 2.062 0.438 4 1 C3.75 3.875 3.75 3.875 3 7 C0.938 8.375 0.938 8.375 -1 9 C-1.098 2.848 -1.098 2.848 -1 1 C-0.67 0.67 -0.34 0.34 0 0 Z " fill="#99A0BC" transform="translate(657,24)"/>
<path d="M0 0 C0.99 0 1.98 0 3 0 C3 2.64 3 5.28 3 8 C2.01 8.33 1.02 8.66 0 9 C0 6.03 0 3.06 0 0 Z " fill="#E7E9EF" transform="translate(290,32)"/>
<path d="M0 0 C1.32 0 2.64 0 4 0 C4 1.65 4 3.3 4 5 C2.35 4.67 0.7 4.34 -1 4 C-0.67 2.68 -0.34 1.36 0 0 Z " fill="#9098B6" transform="translate(393,50)"/>
<path d="M0 0 C0.99 0.33 1.98 0.66 3 1 C3 2.98 3 4.96 3 7 C2.01 7.33 1.02 7.66 0 8 C0 5.36 0 2.72 0 0 Z " fill="#FFFFFF" transform="translate(99,32)"/></g>
</svg>
